<svg width="299" height="319" viewBox="0 0 299 319" fill="none" xmlns="http://www.w3.org/2000/svg">
<path d="M81.0272 78.9129C76.3683 63.9551 85.2368 54.8531 96.4755 41.641C112.119 23.2502 158.759 13.1966 162.927 20.3077C167.096 27.4188 203.387 83.5719 203.387 83.5719L195.418 101.963L203.387 134.821L225.701 211.571L236.245 233.395L239.188 256.69L251.34 254.773L280.138 279.985L243.739 314.069L228.781 305.041C228.781 305.041 217.119 307.449 205.433 301.073C204.634 303.563 204.53 305.097 203.387 307.449C197.859 318.822 185.719 318.777 173.087 318.73L172.491 318.728C164.337 318.7 158.217 319.503 152.138 314.069C147.493 309.917 146.412 301.05 146.217 295.462C143.197 297.748 139.09 292.055 137.037 301.433L136.199 307.449L101.38 314.069L71.9545 307.449C61.4106 307.562 55.0333 306.012 45.717 301.073C35.2461 295.522 23.8933 279.985 23.8933 279.985V247.863C23.8933 247.863 33.0695 220.008 45.717 222.851C50.5897 223.946 56.5063 229.717 56.5063 229.717L54.7898 199.801L68.0311 150.024V128.936L81.0272 113.242L90.0036 101.963L87.6479 92.7046C87.6479 92.7046 83.6097 87.2038 81.0272 78.9129Z" fill="#3F2F20"/>
<path d="M148.95 90.4379C148.95 90.4379 156.407 77.4877 164.153 77.687C175.414 77.9766 171.265 105.641 171.265 105.641L195.295 101.472V104.415C195.295 104.415 181.809 128.691 161.947 126.974C156.004 126.46 115.357 114.468 115.357 114.468L101.134 96.0776C101.134 96.0776 97.975 86.9942 101.134 82.1006C102.81 79.5062 108.803 90.8287 111.679 89.7021C118.901 86.8727 119.848 74.2702 124.92 80.139C129.303 85.2107 126.623 87.334 128.108 93.8707C130.152 102.871 134.238 112.752 134.238 112.752L169.548 118.637L185.241 111.281L195.295 101.472L171.265 105.641C171.265 105.641 157.322 112.133 148.95 109.319C138.766 105.895 122.839 91.907 132.521 87.2501C138.411 84.4175 148.95 90.4379 148.95 90.4379Z" fill="#24170A"/>
<path d="M78.8204 49.2425L106.529 53.4111L95.4947 77.687H75.1422C75.1422 77.687 60.5085 67.5704 62.3913 58.0701C63.982 50.0438 78.8204 49.2425 78.8204 49.2425Z" fill="#24170A"/>
<path d="M164.153 23.0051L142.82 20.3078L144.291 5.10477C144.291 5.10477 150.31 -1.18979 159.985 0.200537C171.871 1.90866 168.812 11.235 168.812 11.235L164.153 23.0051Z" fill="#24170A"/>
<path d="M52.8281 267.234L47.9239 301.564C47.9239 301.564 41.0685 304.803 36.3991 304.751C28.8618 304.668 19.2344 295.924 19.2344 295.924C19.2344 295.924 -1.67616 278.454 0.108009 264.046C1.29073 254.496 3.81431 246.247 12.8589 242.958C22.0245 239.626 28.1612 246.075 36.3991 251.296C43.9498 256.08 52.8281 267.234 52.8281 267.234Z" fill="#24170A"/>
<path d="M267.034 315.585C255.242 321.336 234.175 309.945 234.175 309.945L236.245 282.237C236.245 282.237 251.129 268.167 261.884 263.355C269.515 259.942 288.916 261.885 295.341 267.234C301.817 272.626 297.316 280.621 295.341 288.813C292.081 302.33 279.532 309.49 267.034 315.585Z" fill="#24170A"/>
<path d="M201.18 237.809C201.18 237.809 199.577 265.317 211.969 270.912C228.614 278.427 236.245 230.943 236.245 230.943C236.245 230.943 205.349 136.782 201.18 135.556C197.012 134.33 196.321 142.606 194.069 147.572C190.28 155.926 188.429 170.376 188.429 170.376C188.429 170.376 174.99 209.201 188.429 226.529C192.504 231.783 201.18 237.809 201.18 237.809Z" fill="#24170A"/>
<path d="M111.433 196.614C119.203 217.834 123.965 285.612 146.498 283.908C163.109 282.653 164.516 230.97 171.265 215.74C179.024 198.23 190.113 163.303 171.265 166.698C158.202 169.051 150.912 193.916 150.912 193.916C150.912 193.916 110.986 146.702 103.832 166.698C99.7715 178.048 107.289 185.294 111.433 196.614Z" fill="#24170A"/>
<path d="M171.755 43.8478V61.5029C171.755 61.5029 173.338 45.354 179.111 47.5259C182.32 48.7332 182.546 51.6676 184.261 54.637C185.739 57.1972 187.648 58.5534 187.448 61.5029C187.036 67.6176 171.755 61.5029 171.755 61.5029L164.154 66.4071V79.158C164.154 79.158 152.979 89.5396 144.291 89.2116C138.321 88.9862 132.621 88.9745 130.069 83.5718C126.896 76.8516 141.408 69.7137 143.925 68.5372C141.724 69.5247 130.178 74.382 124.429 70.3304C119.051 66.5401 118.299 54.637 118.299 54.637C118.299 54.637 121.011 35.4106 130.069 29.3804C139.714 22.9594 159.74 29.3804 159.74 29.3804L171.755 43.8478Z" fill="#634D3E" fill-opacity="0.6"/>
<path d="M138.406 151.985C138.406 151.985 111.679 111.281 106.284 113.733C100.889 116.185 106.284 128.2 106.284 128.2C106.284 128.2 104.883 138.662 106.284 145.119C107.919 152.653 110 157.004 115.112 162.775C121.958 170.504 128.329 173.032 138.406 175.28C146.538 177.094 151.669 177.349 159.74 175.28C178.494 170.473 191.862 137.518 191.862 137.518C191.862 137.518 197.99 121.741 191.862 121.825C187.988 121.877 184.261 128.2 184.261 128.2L138.406 151.985Z" fill="#634D3E" fill-opacity="0.6"/>
<path d="M74.6519 170.376C77.5015 157.517 69.395 140.37 82.2534 137.518C96.1364 134.439 97.9468 170.376 97.9468 170.376L106.284 211.326C106.284 211.326 112.117 226.74 118.299 235.111C122.325 240.563 127.221 241.713 130.069 247.862C133.973 256.291 131.352 262.448 130.069 271.648C128.905 279.999 132.846 293.015 124.429 292.491C120.029 292.216 118.861 288.435 115.112 286.115C108.701 282.15 105.474 277.688 97.9468 277.288C87.0989 276.711 80.589 301.588 74.6519 292.491C71.407 287.519 74.6519 283.225 74.6519 277.288C74.6519 265.796 75.8143 259.295 74.6519 247.862C73.1692 233.281 66.4231 225.979 66.0695 211.326C65.6754 194.991 71.1167 186.329 74.6519 170.376Z" fill="#634D3E" fill-opacity="0.6"/>
<path d="M185.869 238.589C177.693 237.595 176.618 236.802 171.755 243.449C166.1 251.177 154.716 269.648 164.291 269.486C171.272 269.367 165.028 256.6 171.755 254.728C180.213 252.375 184.596 269.709 191.862 264.782C195.588 262.255 196.767 259.17 197.502 254.728C199.216 244.368 196.293 239.856 185.869 238.589Z" fill="#634D3E" fill-opacity="0.6"/>
<path d="M171.755 179.939C171.755 179.939 176.778 159.197 184.261 162.775C190.412 165.716 187.448 179.939 187.448 179.939C187.448 179.939 184.883 205.712 175.433 202.499C166.982 199.625 171.755 179.939 171.755 179.939Z" fill="#634D3E" fill-opacity="0.6"/>
<path d="M229.379 214.759C229.379 214.759 225.78 184.933 211.969 175.28C190.15 160.029 190.15 258.7 211.969 243.449C222.711 235.941 229.379 214.759 229.379 214.759Z" fill="#634D3E" fill-opacity="0.6"/>
<path d="M259.677 262.374L251.095 254.728L236.382 281.746L259.677 262.374Z" fill="#634D3E" fill-opacity="0.6"/>
<path d="M38.0076 230.988C39.3223 225.865 39.6142 226.639 44.8735 226.083C48.0747 225.745 52.3378 235.111 52.3378 235.111C52.3378 235.111 69.3024 258.154 55.1723 260.658C42.1748 262.961 34.7261 243.773 38.0076 230.988Z" fill="#634D3E" fill-opacity="0.6"/>
<path d="M78.8204 54.637L100.399 66.4071L104.322 52.9205L72.9354 49.7328L63.6174 54.637L61.1653 58.8056L67.5408 68.3688V58.8056L71.7094 52.9205L78.8204 54.637Z" fill="#634D3E" fill-opacity="0.6"/>
<path d="M161.701 71.8017L154.835 68.3688L145.763 71.8017V81.3649L154.835 84.0622L163.173 78.9128L161.701 71.8017Z" fill="black"/>
<path d="M174.452 54.1466V60.2768L177.64 62.9741H182.789L184.506 59.296L182.789 54.1466L179.847 51.9397L174.452 54.1466Z" fill="black"/>
<path d="M161.701 71.8017L154.835 68.3688L145.763 71.8017V81.3649L154.835 84.0622L163.173 78.9128L161.701 71.8017Z" stroke="black"/>
<path d="M174.452 54.1466V60.2768L177.64 62.9741H182.789L184.506 59.296L182.789 54.1466L179.847 51.9397L174.452 54.1466Z" stroke="black"/>
<path d="M165.625 56.1084C159.127 59.5945 165.625 81.1198 172.736 90.1926C179.847 99.2654 174.452 97.5489 174.452 103.679C174.452 109.809 195.785 97.0585 195.785 97.0585C195.785 97.0585 210.324 88.4748 206.82 77.1965C204.116 68.4915 181.318 64.2004 181.318 64.2004C181.318 64.2004 171.701 52.8484 165.625 56.1084Z" fill="#BFA57D"/>
<path d="M185.079 77.7375C187.242 70.8009 198.1 67.3142 202.874 71.3559C207.648 75.3976 208.95 79.4393 202.874 81.992C196.798 84.5446 187.714 90.9264 185.079 84.5446C184.062 82.0804 184.286 80.2798 185.079 77.7375Z" fill="black" stroke="black"/>
<path d="M183.525 70.5758L190.146 67.1429L184.751 66.6525L178.866 72.0471L177.395 81.3651L183.525 70.5758Z" fill="#3A2C22"/>
<path d="M198.375 91.4633L194.942 90.7277L198.375 87.2948L202.161 86.024H202.789L202.161 89.2565L198.375 91.4633Z" fill="#3A2C22"/>
<path d="M157.533 35.0203C161.6 38.3898 168.385 45.475 169.058 50.7137C169.387 53.2782 154.59 59.296 154.59 59.296C154.59 59.296 139.616 59.0244 139.632 47.526C139.648 37.1162 149.517 28.3792 157.533 35.0203Z" fill="#7C6253" fill-opacity="0.58"/>
<path d="M133.993 155.664C133.993 155.664 130.454 141.934 124.429 143.158C118.352 144.393 119.057 152.641 120.751 158.606C123.582 168.57 135.405 167.469 145.763 167.434C154.128 167.405 162.87 169.152 166.36 161.549C168.278 157.371 167.978 154.081 166.36 149.778C161.838 137.753 133.993 155.664 133.993 155.664Z" fill="#7C6253" fill-opacity="0.58"/>
<path d="M96.4755 243.939C91.09 246.905 86.7098 250.3 86.9123 256.445C87.2224 265.85 101.071 260.852 110.452 261.594C115.894 262.025 121.175 265.976 124.429 261.594C127.629 257.286 120.751 248.353 120.751 248.353C120.751 248.353 104.916 239.291 96.4755 243.939Z" fill="#7C6253" fill-opacity="0.58"/>
<path d="M76.6135 189.502C60.8389 192.33 74.4988 139.642 86.9123 149.778C96.133 157.307 98.0027 170.084 91.3261 179.939C87.4826 185.613 83.3587 188.293 76.6135 189.502Z" fill="#7C6253" fill-opacity="0.58"/>
<path d="M164.708 71.1672C168.398 78.9834 165.252 88.0288 157.854 91.4359C150.456 94.8431 141.418 91.4095 137.727 83.5933C134.037 75.7771 137.184 66.7317 144.582 63.3246C151.979 59.9174 161.018 63.351 164.708 71.1672Z" stroke="#F5F5F5" stroke-width="3"/>
<path d="M172.736 56.5989C172.736 56.5989 172.969 49.1344 176.414 47.2809C178.944 45.9198 181.104 46.2108 183.77 47.2809C188.114 49.0245 190.135 52.9051 189.901 57.5797C189.761 60.3681 189.656 62.8663 187.203 64.2004C185.353 65.2071 181.809 64.2004 181.809 64.2004" stroke="#F5F5F5" stroke-width="2"/>
<path d="M172.736 56.3536C172.736 56.3536 172.624 50.2406 175.188 48.0164C176.949 46.4882 178.501 46.2091 180.828 46.0547C182.964 45.913 184.372 45.9575 186.222 47.0356C188.609 48.4263 189.387 50.2648 190.146 52.9206C190.83 55.3146 190.726 56.8749 190.146 59.2961C189.785 60.8005 189.657 61.7795 188.674 62.9742C188.114 63.6561 187.74 64.0364 186.958 64.4455C185.346 65.2886 182.299 64.4455 182.299 64.4455" stroke="black"/>
<path d="M167.332 77.4416C167.332 85.6555 160.024 92.3899 150.912 92.3899C141.8 92.3899 134.493 85.6555 134.493 77.4416C134.493 69.2278 141.8 62.4934 150.912 62.4934C160.024 62.4934 167.332 69.2278 167.332 77.4416Z" stroke="black"/>
<path d="M149.196 47.7712C149.196 47.7712 158.843 56.5247 158.268 51.4494C157.694 46.3741 161.608 40.169 156.797 38.4533C153.931 37.431 151.072 37.7738 149.196 40.1697C147.365 42.5068 149.196 47.7712 149.196 47.7712Z" fill="#896C5A"/>
<path d="M162.192 162.039C162.192 162.039 160.805 157.248 158.268 156.154C154.391 154.481 149.249 157.816 149.196 162.039C149.132 167.114 162.192 162.039 162.192 162.039Z" fill="#896C5A"/>
<path d="M90.1001 164.491L82.0081 156.154C82.0081 156.154 95.5154 161.19 94.7591 167.924C94.1386 173.448 88.7254 180.737 84.215 177.487C79.6946 174.231 90.1001 164.491 90.1001 164.491Z" fill="#896C5A"/>
<path d="M100.399 64.9359L106.284 53.1658C106.284 53.1658 84.215 53.1658 84.215 55.6179C84.215 58.07 100.399 64.9359 100.399 64.9359Z" fill="#896C5A"/>
</svg>
