<svg width="1686" height="459" viewBox="0 0 1686 459" fill="none" xmlns="http://www.w3.org/2000/svg">
<path d="M733.868 367.535C733.868 367.535 1845.02 243.583 1691.65 425.415L-4.89921e-05 459L-4.89969e-05 312L733.868 367.535Z" fill="#7EAC59" fill-opacity="0.54"/>
<path d="M156.722 391.25L210.68 388.807L196.268 -1.35325L142.311 1.08963L156.722 391.25Z" fill="#57702D"/>
<path d="M165.323 -79.7791L142.512 2.583L194.128 0.240901L165.323 -79.7791Z" fill="#579E5A"/>
<path d="M197.384 -1.39631L170.49 -0.182556L184.904 389.606L211.799 388.392L197.384 -1.39631Z" fill="#214F22"/>
<path opacity="0.8" d="M167.974 -79.5339L289.243 81.5468L57.2801 91.4587L167.974 -79.5339Z" fill="#57702D"/>
<path opacity="0.8" d="M172.935 74.663L284.525 282.195L74.8683 291.156L172.935 74.663Z" fill="#37570D"/>
<path d="M1584.75 395.492L1623.05 393.694L1608.68 13.5264L1570.38 15.3242L1584.75 395.492Z" fill="#57702D"/>
<path d="M1585.87 -63.1932L1570.54 16.7809L1607.18 15.056L1585.87 -63.1932Z" fill="#579E5A"/>
<path d="M1609.48 13.4965L1590.38 14.3889L1604.75 394.194L1623.84 393.302L1609.48 13.4965Z" fill="#214F22"/>
<path opacity="0.8" d="M1587.76 -62.9258L1675.6 95.2723L1510.94 102.426L1587.76 -62.9258Z" fill="#57702D"/>
<path opacity="0.8" d="M1592.91 87.3141L1674.38 290.651L1525.55 297.12L1592.91 87.3141Z" fill="#37570D"/>
<path d="M1370.52 391.822L1401.55 390.385L1391.2 114.632L1360.17 116.068L1370.52 391.822Z" fill="#57702D"/>
<path d="M1372.98 59.0524L1360.3 117.125L1389.98 115.747L1372.98 59.0524Z" fill="#579E5A"/>
<path d="M1372.49 58.9763L1377.31 75.0711L1368.88 75.4623L1372.49 58.9763Z" fill="#3A3728"/>
<path d="M1391.84 114.608L1376.38 115.321L1386.72 390.811L1402.19 390.098L1391.84 114.608Z" fill="#214F22"/>
<path opacity="0.8" d="M1374.51 59.2399L1445.12 173.706L1311.73 179.464L1374.51 59.2399Z" fill="#57702D"/>
<path opacity="0.8" d="M1378.18 168.218L1443.47 315.453L1322.9 320.659L1378.18 168.218Z" fill="#37570D"/>
<path d="M1469.29 415.198L1499.58 413.83L1491.73 200.741L1461.43 202.109L1469.29 415.198Z" fill="#57702D"/>
<path d="M1474.4 157.925L1461.55 202.924L1490.53 201.613L1474.4 157.925Z" fill="#579E5A"/>
<path d="M1473.92 157.871L1478.49 170.273L1470.26 170.645L1473.92 157.871Z" fill="#3A3728"/>
<path d="M1492.36 200.717L1477.26 201.396L1485.11 414.282L1500.21 413.603L1492.36 200.717Z" fill="#214F22"/>
<path opacity="0.8" d="M1475.89 158.058L1543.88 245.961L1413.64 251.52L1475.89 158.058Z" fill="#57702D"/>
<path opacity="0.8" d="M1478.58 242.274L1541.11 355.555L1423.39 360.58L1478.58 242.274Z" fill="#37570D"/>
<path d="M293.644 354.482L313.56 353.547L306.088 155.872L286.173 156.806L293.644 354.482Z" fill="#57702D"/>
<path d="M294.227 115.98L286.255 157.564L305.307 156.667L294.227 115.98Z" fill="#579E5A"/>
<path d="M293.907 115.924L297.05 127.474L291.64 127.729L293.907 115.924Z" fill="#3A3728"/>
<path d="M306.5 155.856L296.574 156.32L304.044 353.807L313.971 353.343L306.5 155.856Z" fill="#214F22"/>
<path opacity="0.8" d="M295.207 116.119L340.885 198.377L255.264 202.097L295.207 116.119Z" fill="#57702D"/>
<path opacity="0.8" d="M297.889 194.239L340.247 299.968L262.86 303.332L297.889 194.239Z" fill="#37570D"/>
<path d="M65.9714 396.095L99.1884 394.588L90.091 148.771L56.874 150.278L65.9714 396.095Z" fill="#57702D"/>
<path d="M70.9948 99.3429L56.9985 151.219L88.7745 149.774L70.9948 99.3429Z" fill="#579E5A"/>
<path d="M70.4629 99.2787L75.5056 113.595L66.4829 114.006L70.4629 99.2787Z" fill="#3A3728"/>
<path d="M90.7782 148.745L74.2218 149.493L83.3209 395.076L99.8773 394.327L90.7782 148.745Z" fill="#214F22"/>
<path opacity="0.8" d="M72.6266 99.4989L147.378 201.054L4.57824 207.163L72.6266 99.4989Z" fill="#57702D"/>
<path opacity="0.8" d="M75.7703 196.649L144.589 327.464L15.5217 332.986L75.7703 196.649Z" fill="#37570D"/>
<path d="M194.693 249.213C191.433 238.748 197.638 232.379 205.501 223.135C216.447 210.268 249.08 203.233 251.996 208.209C254.913 213.184 280.305 252.473 280.305 252.473L274.729 265.341L280.305 288.331L295.917 342.031L303.295 357.301L305.354 373.6L313.856 372.258L334.005 389.899L308.538 413.746L298.072 407.43C298.072 407.43 289.913 409.114 281.736 404.653C281.177 406.395 281.105 407.469 280.305 409.114C276.437 417.072 267.943 417.04 259.105 417.008L258.687 417.006C252.982 416.986 248.701 417.548 244.447 413.746C241.197 410.841 240.441 404.637 240.304 400.727C238.191 402.327 235.318 398.343 233.881 404.905L233.295 409.114L208.933 413.746L188.345 409.114C180.967 409.193 176.505 408.109 169.987 404.653C162.661 400.769 154.718 389.899 154.718 389.899V367.423C154.718 367.423 161.138 347.934 169.987 349.923C173.396 350.69 177.536 354.727 177.536 354.727L176.335 333.796L185.6 298.968V284.213L194.693 273.233L200.973 265.341L199.325 258.863C199.325 258.863 196.5 255.014 194.693 249.213Z" fill="#3F2F20"/>
<path d="M242.217 257.277C242.217 257.277 247.434 248.216 252.854 248.356C260.733 248.558 257.829 267.914 257.829 267.914L274.643 264.998V267.056C274.643 267.056 265.207 284.042 251.31 282.841C247.152 282.481 218.712 274.091 218.712 274.091L208.761 261.223C208.761 261.223 206.551 254.868 208.761 251.444C209.933 249.628 214.127 257.551 216.139 256.762C221.192 254.783 221.855 245.965 225.403 250.071C228.47 253.62 226.595 255.105 227.634 259.679C229.064 265.976 231.923 272.89 231.923 272.89L256.628 277.007L267.609 271.86L274.643 264.998L257.829 267.914C257.829 267.914 248.074 272.457 242.217 270.488C235.091 268.092 223.947 258.305 230.722 255.047C234.843 253.065 242.217 257.277 242.217 257.277Z" fill="#20120F"/>
<path d="M193.149 228.454L212.536 231.37L204.815 248.356H190.575C190.575 248.356 180.336 241.277 181.654 234.63C182.767 229.014 193.149 228.454 193.149 228.454Z" fill="#20120F"/>
<path d="M252.854 210.096L237.928 208.209L238.957 197.572C238.957 197.572 243.168 193.168 249.937 194.14C258.254 195.335 256.114 201.861 256.114 201.861L252.854 210.096Z" fill="#20120F"/>
<path d="M174.963 380.977L171.531 404.996C171.531 404.996 166.735 407.263 163.468 407.227C158.194 407.169 151.458 401.05 151.458 401.05C151.458 401.05 136.827 388.827 138.076 378.747C138.903 372.064 140.669 366.293 146.997 363.992C153.41 361.66 157.704 366.173 163.468 369.825C168.751 373.173 174.963 380.977 174.963 380.977Z" fill="#20120F"/>
<path d="M324.837 414.807C316.586 418.831 301.847 410.861 301.847 410.861L303.295 391.474C303.295 391.474 313.708 381.63 321.234 378.263C326.573 375.875 340.147 377.235 344.642 380.977C349.174 384.75 346.025 390.343 344.642 396.075C342.362 405.533 333.581 410.542 324.837 414.807Z" fill="#20120F"/>
<path d="M278.761 360.389C278.761 360.389 277.639 379.636 286.31 383.551C297.955 388.809 303.295 355.585 303.295 355.585C303.295 355.585 281.677 289.703 278.761 288.845C275.844 287.988 275.361 293.778 273.785 297.252C271.134 303.098 269.839 313.208 269.839 313.208C269.839 313.208 260.436 340.373 269.839 352.497C272.69 356.173 278.761 360.389 278.761 360.389Z" fill="#20120F"/>
<path d="M215.967 331.566C221.403 346.413 224.735 393.836 240.501 392.644C252.123 391.765 253.107 355.604 257.829 344.948C263.259 332.697 271.017 308.259 257.829 310.634C248.69 312.281 243.589 329.678 243.589 329.678C243.589 329.678 215.654 296.643 210.648 310.634C207.808 318.575 213.067 323.646 215.967 331.566Z" fill="#20120F"/>
<path d="M258.173 224.679V237.032C258.173 237.032 259.28 225.733 263.32 227.253C265.565 228.097 265.723 230.151 266.923 232.228C267.957 234.019 269.292 234.968 269.153 237.032C268.864 241.31 258.173 237.032 258.173 237.032L252.854 240.463V249.385C252.854 249.385 245.036 256.649 238.957 256.419C234.78 256.261 230.791 256.253 229.006 252.473C226.786 247.771 236.94 242.777 238.7 241.954C237.161 242.645 229.082 246.043 225.06 243.209C221.297 240.556 220.771 232.228 220.771 232.228C220.771 232.228 222.669 218.776 229.006 214.557C235.755 210.064 249.766 214.557 249.766 214.557L258.173 224.679Z" fill="#91715C" fill-opacity="0.6"/>
<path d="M234.84 300.34C234.84 300.34 216.139 271.86 212.364 273.576C208.59 275.292 212.364 283.698 212.364 283.698C212.364 283.698 211.384 291.019 212.364 295.536C213.508 300.807 214.965 303.852 218.541 307.889C223.331 313.297 227.788 315.066 234.84 316.639C240.529 317.908 244.119 318.087 249.766 316.639C262.888 313.276 272.241 290.218 272.241 290.218C272.241 290.218 276.529 279.179 272.241 279.238C269.531 279.275 266.923 283.698 266.923 283.698L234.84 300.34Z" fill="#91715C" fill-opacity="0.6"/>
<path d="M190.232 313.208C192.226 304.211 186.554 292.213 195.551 290.218C205.264 288.064 206.531 313.208 206.531 313.208L212.364 341.86C212.364 341.86 216.445 352.644 220.771 358.502C223.588 362.316 227.013 363.121 229.006 367.423C231.738 373.32 229.904 377.628 229.006 384.065C228.191 389.909 230.949 399.015 225.06 398.648C221.981 398.456 221.164 395.81 218.541 394.188C214.055 391.413 211.797 388.291 206.531 388.011C198.941 387.608 194.386 405.014 190.232 398.648C187.962 395.17 190.232 392.165 190.232 388.011C190.232 379.971 191.045 375.422 190.232 367.423C189.195 357.221 184.475 352.112 184.227 341.86C183.951 330.431 187.759 324.369 190.232 313.208Z" fill="#91715C" fill-opacity="0.6"/>
<path d="M268.048 360.935C262.328 360.24 261.575 359.684 258.173 364.335C254.216 369.742 246.251 382.666 252.95 382.552C257.835 382.47 253.466 373.536 258.173 372.227C264.091 370.581 267.157 382.709 272.241 379.261C274.848 377.493 275.673 375.335 276.187 372.227C277.387 364.978 275.342 361.821 268.048 360.935Z" fill="#91715C" fill-opacity="0.6"/>
<path d="M258.173 319.899C258.173 319.899 261.687 305.386 266.923 307.889C271.226 309.947 269.153 319.899 269.153 319.899C269.153 319.899 267.358 337.932 260.746 335.683C254.833 333.673 258.173 319.899 258.173 319.899Z" fill="#91715C" fill-opacity="0.6"/>
<path d="M298.491 344.262C298.491 344.262 295.973 323.393 286.31 316.639C271.043 305.968 271.043 375.006 286.31 364.335C293.825 359.082 298.491 344.262 298.491 344.262Z" fill="#91715C" fill-opacity="0.6"/>
<path d="M319.69 377.577L313.685 372.227L303.391 391.131L319.69 377.577Z" fill="#91715C" fill-opacity="0.6"/>
<path d="M164.593 355.616C165.513 352.032 165.717 352.574 169.397 352.185C171.637 351.948 174.619 358.502 174.619 358.502C174.619 358.502 186.489 374.624 176.603 376.376C167.509 377.988 162.297 364.562 164.593 355.616Z" fill="#91715C" fill-opacity="0.6"/>
<path d="M193.149 232.228L208.247 240.463L210.992 231.027L189.031 228.797L182.512 232.228L180.796 235.145L185.257 241.836V235.145L188.173 231.027L193.149 232.228Z" fill="#91715C" fill-opacity="0.6"/>
<path d="M251.138 244.238L246.334 241.836L239.987 244.238V250.929L246.334 252.816L252.168 249.213L251.138 244.238Z" fill="black"/>
<path d="M260.06 231.885V236.174L262.29 238.061H265.893L267.094 235.488L265.893 231.885L263.834 230.341L260.06 231.885Z" fill="black"/>
<path d="M251.138 244.238L246.334 241.836L239.987 244.238V250.929L246.334 252.816L252.168 249.213L251.138 244.238Z" stroke="black"/>
<path d="M260.06 231.885V236.174L262.29 238.061H265.893L267.094 235.488L265.893 231.885L263.834 230.341L260.06 231.885Z" stroke="black"/>
<path d="M253.883 233.258C249.337 235.697 253.883 250.758 258.859 257.106C263.834 263.454 260.06 262.253 260.06 266.542C260.06 270.831 274.986 261.909 274.986 261.909C274.986 261.909 285.158 255.904 282.707 248.012C280.814 241.922 264.864 238.919 264.864 238.919C264.864 238.919 258.135 230.977 253.883 233.258Z" fill="#BFA57D"/>
<path d="M267.495 248.391C269.009 243.538 276.605 241.098 279.946 243.926C283.286 246.754 284.197 249.582 279.946 251.368C275.694 253.154 269.339 257.619 267.495 253.154C266.784 251.43 266.941 250.17 267.495 248.391Z" fill="black" stroke="black"/>
<path d="M266.408 243.38L271.04 240.978L267.266 240.635L263.148 244.41L262.119 250.929L266.408 243.38Z" fill="#3A2C22"/>
<path d="M276.798 257.995L274.396 257.48L276.798 255.078L279.447 254.189H279.886L279.447 256.451L276.798 257.995Z" fill="#3A2C22"/>
<path d="M248.222 218.503C251.067 220.86 255.815 225.818 256.285 229.483C256.516 231.277 246.163 235.488 246.163 235.488C246.163 235.488 235.686 235.298 235.697 227.253C235.708 219.969 242.613 213.856 248.222 218.503Z" fill="#9E7C68" fill-opacity="0.58"/>
<path d="M231.751 302.914C231.751 302.914 229.276 293.308 225.06 294.164C220.808 295.028 221.301 300.799 222.487 304.973C224.467 311.944 232.739 311.174 239.987 311.149C245.84 311.129 251.956 312.351 254.398 307.032C255.74 304.109 255.53 301.807 254.398 298.796C251.234 290.382 231.751 302.914 231.751 302.914Z" fill="#9E7C68" fill-opacity="0.58"/>
<path d="M205.501 364.678C201.733 366.753 198.669 369.129 198.81 373.428C199.027 380.009 208.717 376.512 215.281 377.031C219.088 377.332 222.783 380.097 225.06 377.031C227.299 374.016 222.487 367.766 222.487 367.766C222.487 367.766 211.407 361.426 205.501 364.678Z" fill="#9E7C68" fill-opacity="0.58"/>
<path d="M191.605 326.59C180.567 328.569 190.125 291.704 198.81 298.796C205.262 304.064 206.57 313.004 201.899 319.899C199.209 323.869 196.324 325.744 191.605 326.59Z" fill="#9E7C68" fill-opacity="0.58"/>
<path d="M252.833 243.982C255.316 249.242 253.188 255.296 248.254 257.568C243.32 259.841 237.257 257.56 234.774 252.3C232.29 247.04 234.418 240.987 239.352 238.714C244.287 236.441 250.35 238.722 252.833 243.982Z" stroke="#F5F5F5" stroke-width="3"/>
<path d="M258.859 233.601C258.859 233.601 259.022 228.378 261.432 227.081C263.203 226.129 264.714 226.332 266.579 227.081C269.619 228.301 271.033 231.016 270.869 234.287C270.771 236.238 270.697 237.986 268.981 238.919C267.686 239.624 265.207 238.919 265.207 238.919" stroke="#F5F5F5" stroke-width="2"/>
<path d="M258.859 233.429C258.859 233.429 258.781 229.152 260.575 227.596C261.807 226.527 262.893 226.331 264.521 226.223C266.015 226.124 267.001 226.155 268.295 226.91C269.965 227.883 270.509 229.169 271.04 231.027C271.519 232.702 271.446 233.794 271.04 235.488C270.788 236.541 270.698 237.226 270.011 238.062C269.618 238.539 269.357 238.805 268.81 239.091C267.682 239.681 265.55 239.091 265.55 239.091" stroke="black"/>
<path d="M254.928 248.184C254.928 253.835 249.895 258.493 243.589 258.493C237.284 258.493 232.251 253.835 232.251 248.184C232.251 242.532 237.284 237.875 243.589 237.875C249.895 237.875 254.928 242.532 254.928 248.184Z" stroke="black"/>
<path d="M242.388 227.424C242.388 227.424 249.138 233.549 248.736 229.998C248.334 226.447 251.073 222.105 247.707 220.905C245.701 220.19 243.701 220.429 242.388 222.106C241.108 223.741 242.388 227.424 242.388 227.424Z" fill="#B38E78"/>
<path d="M251.481 307.375C251.481 307.375 250.511 304.023 248.736 303.257C246.023 302.086 242.426 304.42 242.388 307.375C242.344 310.925 251.481 307.375 251.481 307.375Z" fill="#B38E78"/>
<path d="M201.041 309.09L195.379 303.257C195.379 303.257 204.83 306.78 204.301 311.492C203.866 315.358 200.079 320.457 196.923 318.183C193.76 315.905 201.041 309.09 201.041 309.09Z" fill="#B38E78"/>
<path d="M208.247 239.434L212.364 231.199C212.364 231.199 196.923 231.199 196.923 232.915C196.923 234.63 208.247 239.434 208.247 239.434Z" fill="#B38E78"/>
</svg>
