<svg width="1411" height="377" viewBox="0 0 1411 377" fill="none" xmlns="http://www.w3.org/2000/svg">
<path d="M414 282.501C414 282.501 956.5 321.001 1411 377.001L0.999532 377.001L0.999532 256.066L414 282.501Z" fill="#7EAC59" fill-opacity="0.54"/>
<path d="M137.695 308.691L160.48 308.394L160.449 54.9151L137.664 55.2121L137.695 308.691Z" fill="#2A7231"/>
<path d="M42.8687 308.754L68.8266 308.414L68.8048 115.348L42.8469 115.689L42.8687 308.754Z" fill="#57702D"/>
<path d="M148.619 3.29446L137.726 56.1863L159.522 55.8988L148.619 3.29446Z" fill="#579E5A"/>
<path d="M55.582 69.6218L42.7594 115.595L68.414 115.257L55.582 69.6218Z" fill="#7D964D"/>
<path d="M148.256 3.20815L151.348 18.1416L145.159 18.2233L148.256 3.20815Z" fill="#3A3728"/>
<path d="M55.5486 69.5583L59.3595 83.1193L51.7327 83.22L55.5486 69.5583Z" fill="#3A3728"/>
<path d="M160.92 54.9143L149.564 55.0598L149.602 308.297L160.958 308.152L160.92 54.9143Z" fill="#214F22"/>
<path d="M68.8091 115.437L55.6344 115.608L55.6596 308.675L68.8343 308.504L68.8091 115.437Z" fill="#405120"/>
<path opacity="0.8" d="M149.732 3.51675L198.36 110.92L100.418 111.814L149.732 3.51675Z" fill="#57702D"/>
<path opacity="0.8" d="M55.3687 1.30416L108.912 186.734L0.6458 187.725L55.3687 1.30416Z" fill="#57702D"/>
<path opacity="0.8" d="M149.435 103.678L193.262 240.988L104.739 241.797L149.435 103.678Z" fill="#2F6B34"/>
</svg>
