<svg width="274" height="314" viewBox="0 0 274 314" fill="none" xmlns="http://www.w3.org/2000/svg">
<ellipse cx="137" cy="157" rx="137" ry="157" fill="#ECE9D6"/>
<path d="M80 156.5L103.5 101L144 81L188.5 92L197.5 175L159 200.5H118.5L80 156.5Z" fill="#FFFCFC" stroke="#8B6F60"/>
<path d="M106 66L145 57L176 61L221.5 105.5L230.5 159.5L227 202.5V251L208.5 285L192 278L182.5 257L176 222.5L182.5 177.5V135L176 93.5L145 81L120 99.5L112.5 147.5L120 197L112.5 251L99 290L67.5 272L60.5 235.5L55 197L67.5 170.5L78 93.5L106 66Z" fill="black"/>
<path d="M145 81V57M145 81L120 99.5L112.5 147.5L120 197L112.5 251L99 290L67.5 272L60.5 235.5L55 197L67.5 170.5L78 93.5L106 66L145 57M145 81L176 93.5L182.5 135V177.5L176 222.5L182.5 257L192 278L208.5 285L227 251V202.5L230.5 159.5L221.5 105.5L176 61L145 57" stroke="#8B6F60"/>
<path d="M111 257.5L119.5 201.5H160L181.5 185.5L175.5 222.5L181.5 257.5L192.5 277L172 303H111L99.5 288.5L111 257.5Z" fill="#57702D" stroke="#8B6F60"/>
</svg>
