<svg xmlns="http://www.w3.org/2000/svg" viewBox="0 0 1366 768"><defs><style>.cls-1{fill:#7eac59;}.cls-2{fill:#679b3a;}.cls-3{fill:#579e5a;}.cls-4{fill:#214f22;}.cls-10,.cls-5{fill:#57702d;}.cls-6{fill:#2a7231;}.cls-7{fill:#7d964d;}.cls-8{fill:#3a3728;}.cls-9{fill:#405120;}.cls-10,.cls-11{opacity:0.8;}.cls-11{fill:#2f6b34;}.cls-12{fill:#161615;}.cls-13{fill:#604f3a;}.cls-14{fill:#302d2a;}.cls-15{fill:#383430;}.cls-16{fill:#211f1d;}.cls-17{fill:#423c36;}.cls-18{fill:gray;}.cls-19{fill:#cc4955;}.cls-20{fill:#e0e0da;}</style></defs><g id="Layer_1" data-name="Layer 1"><path class="cls-1" d="M-84,619.94S65,508,430,581c45.62,9.12,128.4,24,169,33,284.18,63.36,509.71,154,509.71,154H-84Z"/><path class="cls-1" d="M1366,563s-498.63,17-716.12,97.84L1164.58,782H1366Z"/><polygon class="cls-2" points="705.04 649.66 770.09 628.93 934 715.52 705.04 649.66"/></g><g id="Trees"><polygon class="cls-3" points="1304.11 377.25 1317.15 440.33 1291.08 440.33 1304.11 377.25"/><rect class="cls-4" x="1291.08" y="439.84" width="26.07" height="234.66" transform="translate(2608.22 1114.34) rotate(-180)"/><rect class="cls-5" x="1173.24" y="326.68" width="32.5" height="271.82" transform="translate(2378.97 925.18) rotate(-180)"/><rect class="cls-6" x="1038.69" y="465.93" width="22.46" height="143.57" transform="translate(2099.84 1075.43) rotate(-180)"/><rect class="cls-5" x="300.74" y="486" width="22" height="129.5" transform="translate(623.47 1101.5) rotate(-180)"/><rect class="cls-6" x="200.74" y="316.5" width="28" height="315" transform="translate(429.47 948) rotate(-180)"/><rect class="cls-5" x="76.74" y="418.5" width="33" height="240" transform="translate(186.47 1077) rotate(-180)"/><polygon class="cls-7" points="1189.49 257.7 1173.24 326.68 1205.74 326.68 1189.49 257.7"/><polygon class="cls-3" points="1049.92 406.02 1038.69 465.94 1061.15 465.94 1049.92 406.02"/><polygon class="cls-7" points="311.74 443.89 300.74 486 322.74 486 311.74 443.89"/><polygon class="cls-3" points="214.74 251.2 200.74 316.9 228.74 316.9 214.74 251.2"/><polygon class="cls-7" points="93.24 361.5 76.74 418.61 109.74 418.61 93.24 361.5"/><polyline class="cls-8" points="1304.11 375.92 1304.11 375.92 1307.95 394.48 1300.28 394.48 1304.11 375.92"/><polygon class="cls-8" points="1189.49 257.7 1194.18 277.49 1184.82 277.49 1189.49 257.7"/><polygon class="cls-8" points="1049.92 406.02 1053.52 425.23 1046.32 425.23 1049.92 406.02"/><polygon class="cls-8" points="311.74 443.39 315.55 458 307.92 458 311.74 443.39"/><polygon class="cls-8" points="214.74 251.2 218.71 269.85 210.76 269.85 214.74 251.2"/><polygon class="cls-8" points="93.24 361.5 98.14 378.47 88.33 378.47 93.24 361.5"/><rect class="cls-9" x="1189.5" y="326.68" width="16.23" height="271.82"/><polyline class="cls-4" points="1049.92 465.94 1061.15 465.94 1061.15 609.5 1049.92 609.5"/><rect class="cls-6" x="1290.93" y="440.33" width="13.8" height="233.71" transform="translate(2595.65 1114.37) rotate(-180)"/><rect class="cls-9" x="311.74" y="486" width="11" height="129.5"/><rect class="cls-4" x="214.74" y="316.9" width="14" height="314.6"/><rect class="cls-9" x="93.24" y="418.61" width="16.5" height="239.89"/></g><g id="Layer_3" data-name="Layer 3"><circle class="cls-10" cx="1189.49" cy="292.25" r="140.25"/><polygon class="cls-11" points="215.07 117.84 319.9 430 110.24 430 215.07 117.84"/><polygon class="cls-11" points="1304.62 289.23 1391 556.27 1218.24 556.27 1304.62 289.23"/><circle class="cls-10" cx="312.24" cy="464" r="74"/><circle class="cls-10" cx="92.74" cy="390.5" r="132.5"/><polygon class="cls-11" points="1049.63 333 1120.24 530.88 979.03 530.88 1049.63 333"/></g><g id="Layer_5" data-name="Layer 5"><path class="cls-12" d="M1127.41,432.27s27.21-2,31.08,6.63h5.8l9.45-3.41,8.91,3.41v8.74l-8.91,9.72,11.91,27.77S1200,504,1216.11,544.27c0,0,3.58,2.68,6.27,84.22v29.83l-2.69,4.21-5.37,2.69h-20.56l-10.8-1.79,2.69-7.17s-20.39,9.86-40.21,9l-5.49,6.15v4.35h-6.11L1122,667.91l-7.16-1.79-2.69-8.07-19.71-3.58-8.51,3.37-22.85-3.37L1053,643.34v10.15s2.74,3.67,2.74,6.35-2.74,4.28-2.74,4.28l-8.9,1.1-9,.9-8.07-.9L1019,659l3.58-14.34,2.69-26s.9-32.25,25.09-56.45A59.42,59.42,0,0,1,1062,527.24s8.63-11.76,15.51-8.56L1088,508.43l5.37-15.23s-7.16-21.51,8.07-32.26l5.84-9-4-9.85-.3-10.06,6.57-6.07,11.2,3.77Z"/><path class="cls-13" d="M1146.89,471.8s-7.44-3.1-12.56,8.7l-5.13,19.86s0,7.17,5.38,10.76,17.62,0,17.62,0,3.88-9.86,2.09-13.44l.47-16.21A19.1,19.1,0,0,0,1146.89,471.8Z"/><path class="cls-14" d="M1050.36,561.29v10.13l20.32,40.1s7.45,4.82,13.28,1.94,13.19-5.58,12.19-6.93,7.07-4.92,5.28-16.57-19.29-28.67-19.29-28.67l1.45-8.72-6.07-34.79S1057.53,512.91,1050.36,561.29Z"/><path class="cls-15" d="M1166.7,566.91s26.11,56.2,25.22,61.58-9,34.94-9,34.94,26,4.48,31.36,1.79a21.89,21.89,0,0,0,8.06-6.9V628.49l-4-71.58-2.25-12.64s-26-56.45-30.46-59.14S1166.7,566.91,1166.7,566.91Z"/><path class="cls-16" d="M1107.27,452s-10.32,44.8,18.35,55.55l3.58,5.18a39,39,0,0,0,13.72,5.83l10.25,5.57s-31.14,19.26-59.81-30.91c0,0-2.7-21.51,2.68-26.88Z"/><path class="cls-13" d="M1109.49,430.48l17.59,8.42-15.8,9.5S1101.43,443.92,1109.49,430.48Z"/><path class="cls-13" d="M1162.84,445.44s12.06-4.21,14.74-3.31,5.75,8.06-3.84,15.23Z"/><path class="cls-14" d="M1161,466.32s-2-20-15.09-24.32-18.84,24.32-18.84,24.32a4.17,4.17,0,0,0-4.15,4.48c0,4.48,6.27,10.19,6.27,10.19s-8.07,9.68-6.27,15l4.15,8s-23.86,0-17.59-49.28c0,0,7.17-14.33,23.3-17.92S1163,447.5,1166.7,452s9.09,13.44,9.09,15.23-14.18,35-16.5,36.74-2.31-7.34-2.31-7.34l3.73-6.75-6-8.39s7.59-4.4,10.28-8S1161,466.32,1161,466.32Z"/><path class="cls-14" d="M1091.94,497.24s22,36.27,44.43,41.65c0,0-12.54,10.75-4.48,16.13,0,0,24.19,13.92,25.09,11.89s-25.09,13.19-25.09,13.19-22.4-19.71-27.77-16.12a43.76,43.76,0,0,0-9,8.06s6.07-20-10-23l-7.68-30.34L1088,508.43Z"/><path class="cls-17" d="M1144.8,445.44s-8.43-4.21-13.81,18.19c0,0,12.38-2.69,13.81,2.69,0,0,8.64-7.39,12.2-3.7C1157,462.62,1150.53,444.27,1144.8,445.44Z"/><path class="cls-16" d="M1173.74,615s-33.79,7.91-44.54,27.38l6.27,6,4.48,5,2,15.56,3.46-.86s37.52-4.48,40.21-9,6.27-27.77,6.27-27.77L1186.58,615Z"/><path class="cls-13" d="M1112.18,658.05s-.9-17.43,17-18.57l10.75,11,2,15.57-8.14,9.64-19-9.6Z"/><path class="cls-16" d="M1050.36,562.18s-24.19,14.34-27.78,82.43L1019,659l8.06,6.27,8.07.9,9-.9,8.9-1.1s4.43-1.75,0-10.63V643.34l15.16-35.91-17.79-35.12Z"/><path class="cls-16" d="M1140,531.72s30.84-5.08,33.79-16.43-13.18,46.89-13.18,46.89Z"/><path class="cls-16" d="M1177.58,471.44s-11.64,40.57-26.87,44.16l20.84-5.46,11.26-25.07Z"/><path class="cls-12" d="M1133.2,470.18h-4s-.89,3.31,3.59,4.2S1133.2,470.18,1133.2,470.18Z"/><path class="cls-12" d="M1158.65,472.33l-3.89,2.16a5.4,5.4,0,0,0,3.89,3C1161.46,478,1158.65,472.33,1158.65,472.33Z"/><path class="cls-17" d="M1088,508.43s21.5,37.39,34.94,33.92v19.83S1080.82,538.89,1088,508.43Z"/><path class="cls-12" d="M1079.38,615.27s-4.27-4.38-1.86-11.71c0,0,1,12.84,3.49,11.71Z"/><path class="cls-12" d="M1097.71,606.14s-4.91-1.3-6.33-7.56c0,0,6.2,8.73,7.5,6.86Z"/><path class="cls-12" d="M1089.13,611.8s-5.54-2.58-5.89-10.28c0,0,5.49,11.65,7.42,9.71Z"/><path class="cls-12" d="M1137.71,497.24s4-4.91,10.76,0-5.38,6.94-5.38,6.94S1132.78,501.29,1137.71,497.24Z"/><path class="cls-17" d="M1188.71,517.64l-11.21,44.54,24.69,41.38S1222.42,537.29,1188.71,517.64Z"/><path class="cls-16" d="M1197,619s14.58,24.28,20.29,13.14L1220,642s-23.92-4-25.46,3S1203,630,1197,619Z"/><path class="cls-12" d="M1029.61,619S1043,653.69,1053,643.34l-2.63,5.41s-19.46-5.24-22.91,0A64.79,64.79,0,0,0,1029.61,619Z"/><path class="cls-12" d="M1127.08,646.33s1.66-7.55,9.29-9.44Z"/><path class="cls-12" d="M1148.57,653.54l-11,7.39s3.14-7.07,11-7.39"/><path class="cls-12" d="M1143.78,643l-9.63,8.68s2.07-7.28,9.63-8.68"/><path d="M1194.54,657.6s-4.93,2.49-4.23,6.95Z"/><path d="M1208.25,666.09l2-7.88s-4,3.82-2,7.88"/><path d="M1199.14,665.63l4.24-7s-4.94,2.5-4.24,7"/></g><g id="Layer_6" data-name="Layer 6"><ellipse class="cls-18" cx="1131.5" cy="471.5" rx="8.5" ry="6.5"/><ellipse cx="1131.5" cy="471.5" rx="7.5" ry="5.5"/><ellipse class="cls-18" cx="1157.5" cy="472.5" rx="6.5" ry="8.5" transform="translate(598.84 1590.97) rotate(-85.66)"/><ellipse cx="1157.5" cy="472.5" rx="5.5" ry="7.5" transform="translate(598.84 1590.97) rotate(-85.66)"/><path class="cls-18" d="M1140,471.5s5-2.79,9,.36v.47a10.5,10.5,0,0,0-9-.4Z"/><path class="cls-19" d="M1097.38,580.1l23.31-8.92,13.46,35.48L1087,621.25l-3-7.79,13.75-7.32S1108.76,594.21,1097.38,580.1Z"/><ellipse class="cls-20" cx="1115.5" cy="593.5" rx="7.5" ry="11.5" transform="translate(-130.91 386) rotate(-18.56)"/></g></svg>