<svg width="94" height="68" viewBox="0 0 94 68" fill="none" xmlns="http://www.w3.org/2000/svg">
<ellipse cx="46.5" cy="34" rx="36.5" ry="34" fill="#57702D"/>
<path d="M44.6379 18.725C47.9679 18.725 50.8779 19.37 53.3679 20.66C55.8879 21.92 57.8229 23.75 59.1729 26.15C60.5529 28.52 61.2429 31.295 61.2429 34.475C61.2429 37.655 60.5529 40.415 59.1729 42.755C57.8229 45.095 55.8879 46.895 53.3679 48.155C50.8779 49.385 47.9679 50 44.6379 50H34.4229V18.725H44.6379ZM44.6379 45.815C48.2979 45.815 51.1029 44.825 53.0529 42.845C55.0029 40.865 55.9779 38.075 55.9779 34.475C55.9779 30.845 55.0029 28.01 53.0529 25.97C51.1029 23.93 48.2979 22.91 44.6379 22.91H39.5529V45.815H44.6379Z" fill="#ECE9D6"/>
</svg>
