<svg width="1408" height="306" viewBox="0 0 1408 306" fill="none" xmlns="http://www.w3.org/2000/svg">
<path d="M729 166.5C438.044 163.249 0.999535 285.5 0.999052 302.415L1406.95 302.415C1406.95 302.415 1008.72 169.626 729 166.5Z" fill="#7EAC59" fill-opacity="0.54"/>
<path d="M148.632 294.197L178.927 292.83L171.075 79.7407L140.78 81.1086L148.632 294.197Z" fill="#57702D"/>
<path d="M153.75 36.9254L140.892 81.9242L169.873 80.6128L153.75 36.9254Z" fill="#579E5A"/>
<path d="M153.265 36.8707L157.837 49.273L149.608 49.6454L153.265 36.8707Z" fill="#3A3728"/>
<path d="M171.702 79.7165L156.602 80.3962L164.455 293.282L179.556 292.602L171.702 79.7165Z" fill="#214F22"/>
<path opacity="0.8" d="M155.238 37.0575L223.224 124.961L92.985 130.519L155.238 37.0575Z" fill="#57702D"/>
<path opacity="0.8" d="M157.929 121.274L220.452 234.555L102.737 239.58L157.929 121.274Z" fill="#37570D"/>
<path d="M1152.03 260.197L1182.32 258.83L1174.47 45.7407L1144.17 47.1086L1152.03 260.197Z" fill="#57702D"/>
<path d="M1157.14 2.92536L1144.29 47.9242L1173.27 46.6128L1157.14 2.92536Z" fill="#579E5A"/>
<path d="M1156.66 2.87071L1161.23 15.273L1153 15.6454L1156.66 2.87071Z" fill="#3A3728"/>
<path d="M1175.1 45.7165L1160 46.3962L1167.85 259.282L1182.95 258.602L1175.1 45.7165Z" fill="#214F22"/>
<path opacity="0.8" d="M1158.63 3.0575L1226.62 90.9611L1096.38 96.5195L1158.63 3.0575Z" fill="#57702D"/>
<path opacity="0.8" d="M1161.32 87.274L1223.85 200.555L1106.13 205.58L1161.32 87.274Z" fill="#37570D"/>
<path d="M427.565 256.564L451.267 255.494L445.124 88.7849L421.423 89.8551L427.565 256.564Z" fill="#57702D"/>
<path d="M431.569 55.2885L421.51 90.4932L444.183 89.4672L431.569 55.2885Z" fill="#579E5A"/>
<path d="M431.19 55.246L434.768 64.9489L428.33 65.2402L431.19 55.246Z" fill="#3A3728"/>
<path d="M445.614 88.7661L433.801 89.2979L439.945 255.848L451.759 255.316L445.614 88.7661Z" fill="#214F22"/>
<path opacity="0.8" d="M432.733 55.3921L485.923 124.163L384.03 128.512L432.733 55.3921Z" fill="#57702D"/>
<path opacity="0.8" d="M434.839 121.278L483.754 209.903L391.66 213.834L434.839 121.278Z" fill="#37570D"/>
<path d="M864.565 229.564L888.267 228.494L882.124 61.7849L858.423 62.8551L864.565 229.564Z" fill="#57702D"/>
<path d="M868.569 28.2885L858.51 63.4932L881.183 62.4672L868.569 28.2885Z" fill="#579E5A"/>
<path d="M868.19 28.246L871.768 37.9489L865.33 38.2402L868.19 28.246Z" fill="#3A3728"/>
<path d="M882.614 61.7661L870.801 62.2979L876.945 228.848L888.759 228.316L882.614 61.7661Z" fill="#214F22"/>
<path opacity="0.8" d="M869.733 28.3921L922.922 97.1632L821.03 101.512L869.733 28.3921Z" fill="#57702D"/>
<path opacity="0.8" d="M871.839 94.2784L920.754 182.903L828.66 186.834L871.839 94.2784Z" fill="#37570D"/>
<path opacity="0.8" d="M287.995 80L356 274L220 274L287.995 80Z" fill="#2F6B34"/>
<path opacity="0.8" d="M1020 80L1070 274L970 274L1020 80Z" fill="#2F6B34"/>
<path opacity="0.8" d="M1285 94L1335 288L1235 288L1285 94Z" fill="#2F6B34"/>
<path opacity="0.8" d="M547.498 52L577 246L518 246L547.498 52Z" fill="#2F6B34"/>
</svg>
