<svg width="1684" height="188" viewBox="0 0 1684 188" fill="none" xmlns="http://www.w3.org/2000/svg">
<rect width="1684" height="188" fill="#423C36"/>
<rect x="1155" y="136" width="366" height="24" fill="#604F3A"/>
<rect x="1190" y="91" width="115" height="23" rx="6" fill="#604F3A"/>
<rect x="728" y="10" width="115" height="23" rx="6" fill="#604F3A"/>
<rect x="1429" y="137" width="115" height="23" rx="6" fill="#604F3A"/>
<rect x="1492" y="52" width="115" height="22" rx="6" fill="#604F3A"/>
<rect x="752" y="51" width="84" height="18" rx="6" fill="#604F3A"/>
<rect x="1073" y="140" width="115" height="21" rx="6" fill="#604F3A"/>
<rect x="1112" y="11" width="409" height="21" fill="#604F3A"/>
<rect x="1112" y="53" width="409" height="21" fill="#604F3A"/>
<rect x="1315" y="69" width="24" height="53" rx="6" fill="#604F3A"/>
<rect x="1328" y="96" width="193" height="26" fill="#604F3A"/>
<rect x="1112" y="11" width="21" height="85" rx="6" fill="#604F3A"/>
<rect x="1155" y="53" width="22" height="98" rx="6" fill="#604F3A"/>
<rect x="791" y="82" width="22" height="98" rx="6" fill="#604F3A"/>
</svg>
