<svg width="94" height="68" viewBox="0 0 94 68" fill="none" xmlns="http://www.w3.org/2000/svg">
<ellipse cx="45.5" cy="34" rx="36.5" ry="34" fill="#57702D"/>
<path d="M55.6077 27.725C54.7977 26.165 53.6727 24.995 52.2327 24.215C50.7927 23.405 49.1277 23 47.2377 23C45.1677 23 43.3227 23.465 41.7027 24.395C40.0827 25.325 38.8077 26.645 37.8777 28.355C36.9777 30.065 36.5277 32.045 36.5277 34.295C36.5277 36.545 36.9777 38.54 37.8777 40.28C38.8077 41.99 40.0827 43.31 41.7027 44.24C43.3227 45.17 45.1677 45.635 47.2377 45.635C50.0277 45.635 52.2927 44.855 54.0327 43.295C55.7727 41.735 56.8377 39.62 57.2277 36.95H45.4827V32.855H62.7177V36.86C62.3877 39.29 61.5177 41.525 60.1077 43.565C58.7277 45.605 56.9127 47.24 54.6627 48.47C52.4427 49.67 49.9677 50.27 47.2377 50.27C44.2977 50.27 41.6127 49.595 39.1827 48.245C36.7527 46.865 34.8177 44.96 33.3777 42.53C31.9677 40.1 31.2627 37.355 31.2627 34.295C31.2627 31.235 31.9677 28.49 33.3777 26.06C34.8177 23.63 36.7527 21.74 39.1827 20.39C41.6427 19.01 44.3277 18.32 47.2377 18.32C50.5677 18.32 53.5227 19.145 56.1027 20.795C58.7127 22.415 60.6027 24.725 61.7727 27.725H55.6077Z" fill="#ECE9D6"/>
</svg>
