<svg width="1442" height="814" viewBox="0 0 1442 814" fill="none" xmlns="http://www.w3.org/2000/svg">
<g clip-path="url(#clip0_45_5)" filter="url(#filter0_d_45_5)">
<path d="M-84.1816 650.614C-84.1816 650.614 72.2357 533.135 455.406 609.747C503.297 619.319 590.197 634.935 632.818 644.38C931.145 710.875 1167.9 806 1167.9 806H-84.1816V650.614Z" fill="#7EAC59"/>
<path d="M1438 590.857C1438 590.857 914.548 608.698 686.231 693.538L1226.55 820.693H1438V590.857Z" fill="#7EAC59"/>
<path d="M744.137 681.805L812.425 660.049L984.495 750.923L744.137 681.805Z" fill="#679B3A"/>
<path d="M1373.03 395.916L1386.72 462.117H1359.35L1373.03 395.916Z" fill="#579E5A"/>
<path d="M1359.34 707.874H1386.71V461.603H1359.34V707.874Z" fill="#214F22"/>
<path d="M1235.63 628.113H1269.75V342.844H1235.63V628.113Z" fill="#57702D"/>
<path d="M1094.4 639.658H1117.97V488.984H1094.4V639.658Z" fill="#2A7231"/>
<path d="M319.7 645.954H342.796V510.047H319.7V645.954Z" fill="#57702D"/>
<path d="M214.722 662.746H244.116L244.116 332.16H214.722L214.722 662.746Z" fill="#2A7231"/>
<path d="M84.5496 691.082H119.192L119.192 439.207H84.5496L84.5496 691.082Z" fill="#57702D"/>
<path d="M1252.7 270.451L1235.64 342.844H1269.76L1252.7 270.451Z" fill="#7D964D"/>
<path d="M1106.19 426.109L1094.4 488.994H1117.97L1106.19 426.109Z" fill="#579E5A"/>
<path d="M331.259 465.853L319.711 510.047H342.806L331.259 465.853Z" fill="#7D964D"/>
<path d="M229.43 263.629L214.733 332.58H244.127L229.43 263.629Z" fill="#579E5A"/>
<path d="M101.882 379.387L84.5602 439.322H119.203L101.882 379.387Z" fill="#7D964D"/>
<path d="M1373.03 394.52L1377.06 413.999H1369.01L1373.03 394.52Z" fill="#3A3728"/>
<path d="M1252.7 270.451L1257.63 291.22H1247.8L1252.7 270.451Z" fill="#3A3728"/>
<path d="M1106.19 426.109L1109.96 446.27H1102.41L1106.19 426.109Z" fill="#3A3728"/>
<path d="M331.258 465.329L335.258 480.661H327.248L331.258 465.329Z" fill="#3A3728"/>
<path d="M229.43 263.629L233.597 283.202H225.252L229.43 263.629Z" fill="#3A3728"/>
<path d="M101.882 379.387L107.025 397.196H96.7271L101.882 379.387Z" fill="#3A3728"/>
<path d="M1269.75 342.844H1252.71V628.113H1269.75V342.844Z" fill="#405120"/>
<path d="M1106.19 488.994H1117.97V639.657H1106.19" fill="#214F22"/>
<path d="M1359.18 707.391H1373.67V462.117H1359.18V707.391Z" fill="#2A7231"/>
<path d="M342.806 510.047H331.259V645.954H342.806V510.047Z" fill="#405120"/>
<path d="M244.127 332.58H229.43V662.746H244.127V332.58Z" fill="#214F22"/>
<path d="M119.203 439.322H101.882V691.082H119.203V439.322Z" fill="#405120"/>
<path opacity="0.8" d="M1252.7 453.9C1334.02 453.9 1399.94 388.001 1399.94 306.71C1399.94 225.42 1334.02 159.521 1252.7 159.521C1171.39 159.521 1105.47 225.42 1105.47 306.71C1105.47 388.001 1171.39 453.9 1252.7 453.9Z" fill="#57702D"/>
<path opacity="0.8" d="M229.776 124.671L339.825 452.276H119.728L229.776 124.671Z" fill="#2F6B34"/>
<path opacity="0.8" d="M1373.56 303.541L1464.24 583.794H1282.88L1373.56 303.541Z" fill="#2F6B34"/>
<path opacity="0.8" d="M331.783 564.62C374.687 564.62 409.467 529.85 409.467 486.958C409.467 444.067 374.687 409.297 331.783 409.297C288.88 409.297 254.1 444.067 254.1 486.958C254.1 529.85 288.88 564.62 331.783 564.62Z" fill="#57702D"/>
<path opacity="0.8" d="M101.357 548.878C178.177 548.878 240.453 486.62 240.453 409.822C240.453 333.023 178.177 270.766 101.357 270.766C24.5361 270.766 -37.7393 333.023 -37.7393 409.822C-37.7393 486.62 24.5361 548.878 101.357 548.878Z" fill="#57702D"/>
<path opacity="0.8" d="M1105.88 349.477L1180.01 557.147H1031.77L1105.88 349.477Z" fill="#2F6B34"/>
<line x1="1124.34" y1="802.631" x2="1287.34" y2="951.631" stroke="black"/>
<path d="M1248.56 526.654C1252.08 515.347 1245.38 508.466 1236.88 498.479C1225.05 484.576 1189.8 476.976 1186.65 482.352C1183.49 487.727 1156.06 530.176 1156.06 530.176L1162.08 544.079L1156.06 568.918L1139.19 626.938L1131.22 643.436L1129 661.046L1119.81 659.596L1098.04 678.655L1125.56 704.422L1136.86 697.597C1136.86 697.597 1145.68 699.417 1154.51 694.597C1155.12 696.479 1155.2 697.639 1156.06 699.417C1160.24 708.014 1169.42 707.98 1178.96 707.945L1179.42 707.943C1185.58 707.922 1190.21 708.529 1194.8 704.422C1198.31 701.283 1199.13 694.579 1199.28 690.355C1201.56 692.084 1204.67 687.779 1206.22 694.869L1206.85 699.417L1233.17 704.422L1255.42 699.417C1263.39 699.502 1268.21 698.331 1275.25 694.597C1283.17 690.401 1291.75 678.655 1291.75 678.655V654.372C1291.75 654.372 1284.81 633.316 1275.25 635.465C1271.57 636.293 1267.09 640.655 1267.09 640.655L1268.39 618.04L1258.38 580.411V564.469L1248.56 552.606L1241.77 544.079L1243.55 537.08C1243.55 537.08 1246.61 532.922 1248.56 526.654Z" fill="#3F2F20"/>
<path d="M1197.21 535.367C1197.21 535.367 1191.57 525.577 1185.72 525.728C1177.21 525.947 1180.34 546.859 1180.34 546.859L1162.18 543.708V545.933C1162.18 545.933 1159.29 561.908 1174.31 560.61C1178.8 560.222 1194.22 566.694 1194.22 566.694L1233.62 543.708C1233.62 543.708 1237.68 531.281 1235.29 527.581C1234.03 525.62 1227.56 535.662 1225.39 534.811C1219.93 532.672 1219.21 523.145 1215.38 527.581C1212.06 531.415 1214.09 533.02 1212.97 537.962C1211.42 544.766 1207.3 549.64 1207.3 549.64L1181.64 556.684L1169.78 551.123L1162.18 543.708L1180.34 546.859C1180.34 546.859 1190.88 551.767 1197.21 549.64C1204.91 547.052 1216.95 536.477 1209.63 532.957C1205.18 530.816 1197.21 535.367 1197.21 535.367Z" fill="#24170A"/>
<path d="M1250.23 504.225L1229.28 507.376L1237.62 525.728H1253.01C1253.01 525.728 1264.07 518.08 1262.65 510.898C1261.44 504.831 1250.23 504.225 1250.23 504.225Z" fill="#24170A"/>
<path d="M1185.72 484.391L1201.85 482.352L1200.73 470.859C1200.73 470.859 1196.18 466.101 1188.87 467.152C1179.88 468.443 1182.2 475.493 1182.2 475.493L1185.72 484.391Z" fill="#24170A"/>
<path d="M1269.88 669.016L1273.58 694.968C1273.58 694.968 1278.76 697.417 1282.29 697.378C1287.99 697.315 1295.27 690.704 1295.27 690.704C1295.27 690.704 1311.08 677.498 1309.73 666.607C1308.84 659.387 1306.93 653.151 1300.09 650.665C1293.16 648.146 1288.52 653.021 1282.29 656.968C1276.59 660.585 1269.88 669.016 1269.88 669.016Z" fill="#24170A"/>
<path d="M1107.95 705.567C1116.86 709.915 1132.79 701.304 1132.79 701.304L1131.22 680.357C1131.22 680.357 1119.97 669.722 1111.84 666.084C1106.07 663.504 1091.4 664.973 1086.55 669.016C1081.65 673.092 1085.05 679.136 1086.55 685.329C1089.01 695.547 1098.5 700.96 1107.95 705.567Z" fill="#24170A"/>
<path d="M1157.73 646.772C1157.73 646.772 1158.94 667.567 1149.57 671.797C1136.99 677.478 1131.22 641.582 1131.22 641.582C1131.22 641.582 1154.58 570.401 1157.73 569.474C1160.88 568.547 1161.4 574.803 1163.1 578.557C1165.97 584.873 1167.37 595.796 1167.37 595.796C1167.37 595.796 1177.53 625.146 1167.37 638.245C1164.29 642.217 1157.73 646.772 1157.73 646.772Z" fill="#24170A"/>
<path d="M1225.57 615.631C1219.7 631.672 1216.1 682.909 1199.07 681.621C1186.51 680.672 1185.44 641.602 1180.34 630.089C1174.48 616.853 1166.09 590.449 1180.34 593.016C1190.22 594.794 1195.73 613.592 1195.73 613.592C1195.73 613.592 1225.91 577.9 1231.32 593.016C1234.39 601.596 1228.71 607.074 1225.57 615.631Z" fill="#24170A"/>
<path d="M1179.97 500.147V513.493C1179.97 513.493 1178.78 501.286 1174.41 502.927C1171.99 503.84 1171.81 506.058 1170.52 508.303C1169.4 510.238 1167.96 511.264 1168.11 513.493C1168.42 518.116 1179.97 513.493 1179.97 513.493L1185.72 517.201V526.84C1185.72 526.84 1194.17 534.688 1200.73 534.44C1205.25 534.269 1209.56 534.261 1211.48 530.176C1213.88 525.096 1202.91 519.7 1201.01 518.811C1202.67 519.557 1211.4 523.229 1215.75 520.167C1219.81 517.301 1220.38 508.303 1220.38 508.303C1220.38 508.303 1218.33 493.769 1211.48 489.21C1204.19 484.356 1189.06 489.21 1189.06 489.21L1179.97 500.147Z" fill="#634D3E" fill-opacity="0.6"/>
<path d="M1205.18 581.894C1205.18 581.894 1225.39 551.123 1229.47 552.977C1233.54 554.83 1229.47 563.913 1229.47 563.913C1229.47 563.913 1230.52 571.822 1229.47 576.704C1228.23 582.398 1226.66 585.688 1222.79 590.05C1217.62 595.893 1212.8 597.804 1205.18 599.504C1199.04 600.875 1195.16 601.067 1189.06 599.504C1174.88 595.87 1164.77 570.957 1164.77 570.957C1164.77 570.957 1160.14 559.031 1164.77 559.094C1167.7 559.134 1170.52 563.913 1170.52 563.913L1205.18 581.894Z" fill="#634D3E" fill-opacity="0.6"/>
<path d="M1253.38 595.796C1251.22 586.076 1257.35 573.113 1247.63 570.957C1237.14 568.63 1235.77 595.796 1235.77 595.796L1229.47 626.753C1229.47 626.753 1225.06 638.405 1220.38 644.733C1217.34 648.854 1213.64 649.724 1211.48 654.372C1208.53 660.744 1210.51 665.398 1211.48 672.353C1212.36 678.666 1209.39 688.506 1215.75 688.109C1219.07 687.902 1219.96 685.043 1222.79 683.29C1227.64 680.292 1230.08 676.919 1235.77 676.616C1243.97 676.181 1248.89 694.986 1253.38 688.109C1255.83 684.351 1253.38 681.105 1253.38 676.616C1253.38 667.93 1252.5 663.015 1253.38 654.372C1254.5 643.349 1259.6 637.829 1259.87 626.753C1260.16 614.404 1256.05 607.856 1253.38 595.796Z" fill="#634D3E" fill-opacity="0.6"/>
<path d="M1169.3 647.362C1175.48 646.611 1176.3 646.011 1179.97 651.036C1184.25 656.878 1192.85 670.841 1185.61 670.718C1180.34 670.629 1185.06 660.977 1179.97 659.563C1173.58 657.784 1170.26 670.888 1164.77 667.163C1161.96 665.253 1161.06 662.92 1160.51 659.563C1159.21 651.731 1161.42 648.32 1169.3 647.362Z" fill="#634D3E" fill-opacity="0.6"/>
<path d="M1179.97 603.026C1179.97 603.026 1176.17 587.345 1170.52 590.05C1165.87 592.273 1168.11 603.026 1168.11 603.026C1168.11 603.026 1170.05 622.509 1177.19 620.079C1183.58 617.907 1179.97 603.026 1179.97 603.026Z" fill="#634D3E" fill-opacity="0.6"/>
<path d="M1136.41 629.348C1136.41 629.348 1139.13 606.801 1149.57 599.504C1166.07 587.975 1166.07 662.565 1149.57 651.036C1141.45 645.36 1136.41 629.348 1136.41 629.348Z" fill="#634D3E" fill-opacity="0.6"/>
<path d="M1113.51 665.343L1119.99 659.563L1131.12 679.987L1113.51 665.343Z" fill="#634D3E" fill-opacity="0.6"/>
<path d="M1281.08 641.616C1280.08 637.743 1279.86 638.329 1275.89 637.908C1273.47 637.653 1270.25 644.733 1270.25 644.733C1270.25 644.733 1251.04 665.27 1261.72 667.163C1271.54 668.904 1283.56 651.281 1281.08 641.616Z" fill="#634D3E" fill-opacity="0.6"/>
<path d="M1250.23 508.303L1233.91 517.201L1230.95 507.006L1254.68 504.596L1261.72 508.303L1263.57 511.454L1258.75 518.684V511.454L1255.6 507.006L1250.23 508.303Z" fill="#634D3E" fill-opacity="0.6"/>
<path d="M1187.57 521.279L1192.76 518.684L1199.62 521.279V528.508L1192.76 530.547L1186.46 526.654L1187.57 521.279Z" fill="black"/>
<path d="M1177.93 507.932V512.566L1175.52 514.605H1171.63L1170.33 511.825L1171.63 507.932L1173.86 506.264L1177.93 507.932Z" fill="black"/>
<path d="M1187.57 521.279L1192.76 518.684L1199.62 521.279V528.508L1192.76 530.547L1186.46 526.654L1187.57 521.279Z" stroke="black"/>
<path d="M1177.93 507.932V512.566L1175.52 514.605H1171.63L1170.33 511.825L1171.63 507.932L1173.86 506.264L1177.93 507.932Z" stroke="black"/>
<path d="M1184.61 509.415C1189.52 512.05 1184.61 528.323 1179.23 535.181C1173.86 542.04 1177.93 540.742 1177.93 545.376C1177.93 550.011 1161.81 540.371 1161.81 540.371C1161.81 540.371 1150.82 533.883 1153.46 525.357C1155.51 518.776 1172.74 515.532 1172.74 515.532C1172.74 515.532 1180.01 506.951 1184.61 509.415Z" fill="#BFA57D"/>
<path d="M1169.9 525.766C1168.26 520.522 1160.06 517.886 1156.45 520.942C1152.84 523.997 1151.85 527.052 1156.45 528.982C1161.04 530.912 1167.91 535.736 1169.9 530.912C1170.67 529.049 1170.5 527.688 1169.9 525.766Z" fill="black" stroke="black"/>
<path d="M1169.9 525.766C1168.26 520.522 1160.06 517.886 1156.45 520.942C1152.84 523.997 1151.85 527.052 1156.45 528.982C1161.04 530.912 1167.91 535.736 1169.9 530.912C1170.67 529.049 1170.5 527.688 1169.9 525.766Z" fill="black" stroke="black"/>
<path d="M1171.07 520.352L1166.07 517.757L1170.15 517.386L1174.6 521.464L1175.71 528.508L1171.07 520.352Z" fill="#3A2C22"/>
<path d="M1159.85 534.844L1162.44 535.586L1159.85 532.991L1156.99 532.03H1156.51L1156.99 533.361L1159.85 534.844Z" fill="#3A2C22"/>
<path d="M1190.72 493.474C1187.65 496.021 1182.52 501.377 1182.01 505.337C1181.76 507.276 1192.95 511.825 1192.95 511.825C1192.95 511.825 1204.27 511.62 1204.26 502.927C1204.24 495.058 1196.78 488.453 1190.72 493.474Z" fill="#7C6253" fill-opacity="0.58"/>
<path d="M1208.52 584.674C1208.52 584.674 1211.19 574.295 1215.75 575.221C1220.34 576.154 1219.81 582.389 1218.53 586.899C1216.39 594.431 1207.45 593.599 1199.62 593.572C1193.3 593.55 1186.69 594.871 1184.05 589.123C1182.6 585.965 1182.83 583.478 1184.05 580.226C1187.47 571.135 1208.52 584.674 1208.52 584.674Z" fill="#7C6253" fill-opacity="0.58"/>
<path d="M1236.88 651.406C1240.95 653.648 1244.26 656.215 1244.11 660.86C1243.87 667.97 1233.41 664.192 1226.31 664.753C1222.2 665.078 1218.21 668.066 1215.75 664.753C1213.33 661.496 1218.53 654.743 1218.53 654.743C1218.53 654.743 1230.5 647.893 1236.88 651.406Z" fill="#7C6253" fill-opacity="0.58"/>
<path d="M1251.89 610.255C1263.82 612.393 1253.49 572.563 1244.11 580.226C1237.14 585.917 1235.73 595.576 1240.77 603.026C1243.68 607.315 1246.8 609.341 1251.89 610.255Z" fill="#7C6253" fill-opacity="0.58"/>
<path d="M1185.63 520.952C1182.92 526.691 1185.24 533.305 1190.64 535.79C1196.03 538.275 1202.65 535.778 1205.36 530.039C1208.07 524.3 1205.75 517.686 1200.36 515.201C1194.96 512.716 1188.34 515.213 1185.63 520.952Z" stroke="#F5F5F5" stroke-width="3"/>
<path d="M1179.23 509.786C1179.23 509.786 1179.05 504.143 1176.45 502.742C1174.54 501.713 1172.9 501.933 1170.89 502.742C1167.61 504.06 1166.08 506.994 1166.26 510.527C1166.36 512.635 1166.44 514.524 1168.29 515.532C1169.69 516.293 1172.37 515.532 1172.37 515.532" stroke="#F5F5F5" stroke-width="2"/>
<path d="M1179.31 510.049C1179.31 510.049 1179.4 505.428 1177.46 503.746C1176.13 502.591 1174.95 502.38 1173.19 502.263C1171.58 502.156 1170.52 502.19 1169.12 503.005C1167.31 504.056 1166.72 505.446 1166.15 507.454C1165.63 509.263 1165.71 510.443 1166.15 512.273C1166.42 513.411 1166.52 514.151 1167.26 515.054C1167.69 515.569 1167.97 515.857 1168.56 516.166C1169.78 516.803 1172.08 516.166 1172.08 516.166" stroke="black"/>
<path d="M1183.44 525.542C1183.44 531.674 1188.9 536.72 1195.73 536.72C1202.56 536.72 1208.02 531.674 1208.02 525.542C1208.02 519.41 1202.56 514.364 1195.73 514.364C1188.9 514.364 1183.44 519.41 1183.44 525.542Z" stroke="black"/>
<path d="M1197.03 503.113C1197.03 503.113 1189.73 509.73 1190.17 505.893C1190.6 502.057 1187.64 497.366 1191.28 496.069C1193.45 495.296 1195.61 495.555 1197.03 497.366C1198.41 499.133 1197.03 503.113 1197.03 503.113Z" fill="#896C5A"/>
<path d="M1187.2 589.494C1187.2 589.494 1188.25 585.872 1190.17 585.045C1193.1 583.78 1196.99 586.302 1197.03 589.494C1197.07 593.33 1187.2 589.494 1187.2 589.494Z" fill="#896C5A"/>
<path d="M1241.7 591.348L1247.82 585.045C1247.82 585.045 1237.61 588.852 1238.18 593.943C1238.65 598.119 1242.74 603.628 1246.15 601.172C1249.57 598.71 1241.7 591.348 1241.7 591.348Z" fill="#896C5A"/>
<path d="M1234.92 516.122C1231.34 517.625 1230.89 511.171 1229.92 507.41C1228.62 502.405 1249.01 505.556 1249.01 507.41C1249.01 509.264 1240.67 513.713 1234.92 516.122Z" fill="#896C5A"/>
</g>
<defs>
<filter id="filter0_d_45_5" x="0" y="0" width="1442" height="814" filterUnits="userSpaceOnUse" color-interpolation-filters="sRGB">
<feFlood flood-opacity="0" result="BackgroundImageFix"/>
<feColorMatrix in="SourceAlpha" type="matrix" values="0 0 0 0 0 0 0 0 0 0 0 0 0 0 0 0 0 0 127 0" result="hardAlpha"/>
<feOffset dy="4"/>
<feGaussianBlur stdDeviation="2"/>
<feComposite in2="hardAlpha" operator="out"/>
<feColorMatrix type="matrix" values="0 0 0 0 0 0 0 0 0 0 0 0 0 0 0 0 0 0 0.25 0"/>
<feBlend mode="normal" in2="BackgroundImageFix" result="effect1_dropShadow_45_5"/>
<feBlend mode="normal" in="SourceGraphic" in2="effect1_dropShadow_45_5" result="shape"/>
</filter>
<clipPath id="clip0_45_5">
<rect width="1434" height="806" fill="white" transform="translate(4)"/>
</clipPath>
</defs>
</svg>
