<svg width="1434" height="682" viewBox="0 0 1434 682" fill="none" xmlns="http://www.w3.org/2000/svg">
<path d="M-88.1816 526.614C-88.1816 526.614 68.2357 409.135 451.406 485.747C499.297 495.319 586.197 510.935 628.818 520.38C927.145 586.875 1163.9 682 1163.9 682H-88.1816V526.614Z" fill="#7EAC59"/>
<path d="M1434 466.857C1434 466.857 910.548 484.698 682.231 569.538L1222.55 696.693H1434V466.857Z" fill="#7EAC59"/>
<path d="M740.137 557.805L808.425 536.049L980.495 626.923L740.137 557.805Z" fill="#679B3A"/>
<path d="M1369.03 271.916L1382.72 338.117H1355.35L1369.03 271.916Z" fill="#579E5A"/>
<path d="M1355.34 583.874H1382.71V337.603H1355.34V583.874Z" fill="#214F22"/>
<path d="M1231.63 504.113H1265.75V218.844H1231.63V504.113Z" fill="#57702D"/>
<path d="M1090.4 515.658H1113.97V364.984H1090.4V515.658Z" fill="#2A7231"/>
<path d="M315.7 521.954H338.796V386.047H315.7V521.954Z" fill="#57702D"/>
<path d="M210.722 538.746H240.116L240.116 208.16H210.722L210.722 538.746Z" fill="#2A7231"/>
<path d="M80.5496 567.082H115.192L115.192 315.207H80.5496L80.5496 567.082Z" fill="#57702D"/>
<path d="M1248.7 146.451L1231.64 218.844H1265.76L1248.7 146.451Z" fill="#7D964D"/>
<path d="M1102.19 302.109L1090.4 364.994H1113.97L1102.19 302.109Z" fill="#579E5A"/>
<path d="M327.259 341.853L315.711 386.047H338.806L327.259 341.853Z" fill="#7D964D"/>
<path d="M225.43 139.629L210.733 208.58H240.127L225.43 139.629Z" fill="#579E5A"/>
<path d="M97.8815 255.387L80.5602 315.322H115.203L97.8815 255.387Z" fill="#7D964D"/>
<path d="M1369.03 270.52L1373.06 289.999H1365.01L1369.03 270.52Z" fill="#3A3728"/>
<path d="M1248.7 146.451L1253.63 167.22H1243.8L1248.7 146.451Z" fill="#3A3728"/>
<path d="M1102.19 302.109L1105.96 322.27H1098.41L1102.19 302.109Z" fill="#3A3728"/>
<path d="M327.258 341.329L331.258 356.661H323.248L327.258 341.329Z" fill="#3A3728"/>
<path d="M225.43 139.629L229.597 159.202H221.252L225.43 139.629Z" fill="#3A3728"/>
<path d="M97.8815 255.387L103.025 273.196H92.7271L97.8815 255.387Z" fill="#3A3728"/>
<path d="M1265.75 218.844H1248.71V504.113H1265.75V218.844Z" fill="#405120"/>
<path d="M1102.19 364.994H1113.97V515.657H1102.19" fill="#214F22"/>
<path d="M1355.18 583.391H1369.67V338.117H1355.18V583.391Z" fill="#2A7231"/>
<path d="M338.806 386.047H327.259V521.954H338.806V386.047Z" fill="#405120"/>
<path d="M240.127 208.58H225.43V538.746H240.127V208.58Z" fill="#214F22"/>
<path d="M115.203 315.322H97.8815V567.082H115.203V315.322Z" fill="#405120"/>
<path opacity="0.8" d="M1248.7 329.9C1330.02 329.9 1395.94 264.001 1395.94 182.71C1395.94 101.42 1330.02 35.5209 1248.7 35.5209C1167.39 35.5209 1101.47 101.42 1101.47 182.71C1101.47 264.001 1167.39 329.9 1248.7 329.9Z" fill="#57702D"/>
<path opacity="0.8" d="M225.776 0.670654L335.825 328.276H115.728L225.776 0.670654Z" fill="#2F6B34"/>
<path opacity="0.8" d="M1369.56 179.541L1460.24 459.794H1278.88L1369.56 179.541Z" fill="#2F6B34"/>
<path opacity="0.8" d="M327.783 440.62C370.687 440.62 405.467 405.85 405.467 362.958C405.467 320.067 370.687 285.297 327.783 285.297C284.88 285.297 250.1 320.067 250.1 362.958C250.1 405.85 284.88 440.62 327.783 440.62Z" fill="#57702D"/>
<path opacity="0.8" d="M97.3566 424.878C174.177 424.878 236.453 362.62 236.453 285.822C236.453 209.023 174.177 146.766 97.3566 146.766C20.5361 146.766 -41.7393 209.023 -41.7393 285.822C-41.7393 362.62 20.5361 424.878 97.3566 424.878Z" fill="#57702D"/>
<path opacity="0.8" d="M1101.88 225.477L1176.01 433.147H1027.77L1101.88 225.477Z" fill="#2F6B34"/>
<path d="M1244.56 402.654C1248.08 391.347 1241.38 384.466 1232.88 374.479C1221.05 360.576 1185.8 352.976 1182.65 358.352C1179.49 363.727 1152.06 406.176 1152.06 406.176L1158.08 420.079L1152.06 444.918L1135.19 502.938L1127.22 519.436L1125 537.046L1115.81 535.596L1094.04 554.655L1121.56 580.422L1132.86 573.597C1132.86 573.597 1141.68 575.417 1150.51 570.597C1151.12 572.479 1151.2 573.639 1152.06 575.417C1156.24 584.014 1165.42 583.98 1174.96 583.945L1175.42 583.943C1181.58 583.922 1186.21 584.529 1190.8 580.422C1194.31 577.283 1195.13 570.579 1195.28 566.355C1197.56 568.084 1200.67 563.779 1202.22 570.869L1202.85 575.417L1229.17 580.422L1251.42 575.417C1259.39 575.502 1264.21 574.331 1271.25 570.597C1279.17 566.401 1287.75 554.655 1287.75 554.655V530.372C1287.75 530.372 1280.81 509.316 1271.25 511.465C1267.57 512.293 1263.09 516.655 1263.09 516.655L1264.39 494.04L1254.38 456.411V440.469L1244.56 428.606L1237.77 420.079L1239.55 413.08C1239.55 413.08 1242.61 408.922 1244.56 402.654Z" fill="#3F2F20"/>
<path d="M1193.21 411.367C1193.21 411.367 1187.57 401.577 1181.72 401.728C1173.21 401.947 1176.34 422.859 1176.34 422.859L1158.18 419.708V421.933C1158.18 421.933 1155.29 437.908 1170.31 436.61C1174.8 436.222 1190.22 442.694 1190.22 442.694L1229.62 419.708C1229.62 419.708 1233.68 407.281 1231.29 403.581C1230.03 401.62 1223.56 411.662 1221.39 410.811C1215.93 408.672 1215.21 399.145 1211.38 403.581C1208.06 407.415 1210.09 409.02 1208.97 413.962C1207.42 420.766 1203.3 425.64 1203.3 425.64L1177.64 432.684L1165.78 427.123L1158.18 419.708L1176.34 422.859C1176.34 422.859 1186.88 427.767 1193.21 425.64C1200.91 423.052 1212.95 412.477 1205.63 408.957C1201.18 406.816 1193.21 411.367 1193.21 411.367Z" fill="#24170A"/>
<path d="M1246.23 380.225L1225.28 383.376L1233.62 401.728H1249.01C1249.01 401.728 1260.07 394.08 1258.65 386.898C1257.44 380.831 1246.23 380.225 1246.23 380.225Z" fill="#24170A"/>
<path d="M1181.72 360.391L1197.85 358.352L1196.73 346.859C1196.73 346.859 1192.18 342.101 1184.87 343.152C1175.88 344.443 1178.2 351.493 1178.2 351.493L1181.72 360.391Z" fill="#24170A"/>
<path d="M1265.88 545.016L1269.58 570.968C1269.58 570.968 1274.76 573.417 1278.29 573.378C1283.99 573.315 1291.27 566.704 1291.27 566.704C1291.27 566.704 1307.08 553.498 1305.73 542.607C1304.84 535.387 1302.93 529.151 1296.09 526.665C1289.16 524.146 1284.52 529.021 1278.29 532.968C1272.59 536.585 1265.88 545.016 1265.88 545.016Z" fill="#24170A"/>
<path d="M1103.95 581.567C1112.86 585.915 1128.79 577.304 1128.79 577.304L1127.22 556.357C1127.22 556.357 1115.97 545.722 1107.84 542.084C1102.07 539.504 1087.4 540.973 1082.55 545.016C1077.65 549.092 1081.05 555.136 1082.55 561.329C1085.01 571.547 1094.5 576.96 1103.95 581.567Z" fill="#24170A"/>
<path d="M1153.73 522.772C1153.73 522.772 1154.94 543.567 1145.57 547.797C1132.99 553.478 1127.22 517.582 1127.22 517.582C1127.22 517.582 1150.58 446.401 1153.73 445.474C1156.88 444.547 1157.4 450.803 1159.1 454.557C1161.97 460.873 1163.37 471.796 1163.37 471.796C1163.37 471.796 1173.53 501.146 1163.37 514.245C1160.29 518.217 1153.73 522.772 1153.73 522.772Z" fill="#24170A"/>
<path d="M1221.57 491.631C1215.7 507.672 1212.1 558.909 1195.07 557.621C1182.51 556.672 1181.44 517.602 1176.34 506.089C1170.48 492.853 1162.09 466.449 1176.34 469.016C1186.22 470.794 1191.73 489.592 1191.73 489.592C1191.73 489.592 1221.91 453.9 1227.32 469.016C1230.39 477.596 1224.71 483.074 1221.57 491.631Z" fill="#24170A"/>
<path d="M1175.97 376.147V389.493C1175.97 389.493 1174.78 377.286 1170.41 378.927C1167.99 379.84 1167.81 382.058 1166.52 384.303C1165.4 386.238 1163.96 387.264 1164.11 389.493C1164.42 394.116 1175.97 389.493 1175.97 389.493L1181.72 393.201V402.84C1181.72 402.84 1190.17 410.688 1196.73 410.44C1201.25 410.269 1205.56 410.261 1207.48 406.176C1209.88 401.096 1198.91 395.7 1197.01 394.811C1198.67 395.557 1207.4 399.229 1211.75 396.167C1215.81 393.301 1216.38 384.303 1216.38 384.303C1216.38 384.303 1214.33 369.769 1207.48 365.21C1200.19 360.356 1185.06 365.21 1185.06 365.21L1175.97 376.147Z" fill="#634D3E" fill-opacity="0.6"/>
<path d="M1201.18 457.894C1201.18 457.894 1221.39 427.123 1225.47 428.977C1229.54 430.83 1225.47 439.913 1225.47 439.913C1225.47 439.913 1226.52 447.822 1225.47 452.704C1224.23 458.398 1222.66 461.688 1218.79 466.05C1213.62 471.893 1208.8 473.804 1201.18 475.504C1195.04 476.875 1191.16 477.067 1185.06 475.504C1170.88 471.87 1160.77 446.957 1160.77 446.957C1160.77 446.957 1156.14 435.031 1160.77 435.094C1163.7 435.134 1166.52 439.913 1166.52 439.913L1201.18 457.894Z" fill="#634D3E" fill-opacity="0.6"/>
<path d="M1249.38 471.796C1247.22 462.076 1253.35 449.113 1243.63 446.957C1233.14 444.63 1231.77 471.796 1231.77 471.796L1225.47 502.753C1225.47 502.753 1221.06 514.405 1216.38 520.733C1213.34 524.854 1209.64 525.724 1207.48 530.372C1204.53 536.744 1206.51 541.398 1207.48 548.353C1208.36 554.666 1205.39 564.506 1211.75 564.109C1215.07 563.902 1215.96 561.043 1218.79 559.29C1223.64 556.292 1226.08 552.919 1231.77 552.616C1239.97 552.181 1244.89 570.986 1249.38 564.109C1251.83 560.351 1249.38 557.105 1249.38 552.616C1249.38 543.93 1248.5 539.015 1249.38 530.372C1250.5 519.349 1255.6 513.829 1255.87 502.753C1256.16 490.404 1252.05 483.856 1249.38 471.796Z" fill="#634D3E" fill-opacity="0.6"/>
<path d="M1165.3 523.362C1171.48 522.611 1172.3 522.011 1175.97 527.036C1180.25 532.878 1188.85 546.841 1181.61 546.718C1176.34 546.629 1181.06 536.977 1175.97 535.563C1169.58 533.784 1166.26 546.888 1160.77 543.163C1157.96 541.253 1157.06 538.92 1156.51 535.563C1155.21 527.731 1157.42 524.32 1165.3 523.362Z" fill="#634D3E" fill-opacity="0.6"/>
<path d="M1175.97 479.026C1175.97 479.026 1172.17 463.345 1166.52 466.05C1161.87 468.273 1164.11 479.026 1164.11 479.026C1164.11 479.026 1166.05 498.509 1173.19 496.079C1179.58 493.907 1175.97 479.026 1175.97 479.026Z" fill="#634D3E" fill-opacity="0.6"/>
<path d="M1132.41 505.348C1132.41 505.348 1135.13 482.801 1145.57 475.504C1162.07 463.975 1162.07 538.565 1145.57 527.036C1137.45 521.36 1132.41 505.348 1132.41 505.348Z" fill="#634D3E" fill-opacity="0.6"/>
<path d="M1109.51 541.343L1115.99 535.563L1127.12 555.987L1109.51 541.343Z" fill="#634D3E" fill-opacity="0.6"/>
<path d="M1277.08 517.616C1276.08 513.743 1275.86 514.329 1271.89 513.908C1269.47 513.653 1266.25 520.733 1266.25 520.733C1266.25 520.733 1247.04 541.27 1257.72 543.163C1267.54 544.904 1279.56 527.281 1277.08 517.616Z" fill="#634D3E" fill-opacity="0.6"/>
<path d="M1246.23 384.303L1229.91 393.201L1226.95 383.006L1250.68 380.596L1257.72 384.303L1259.57 387.454L1254.75 394.684V387.454L1251.6 383.006L1246.23 384.303Z" fill="#634D3E" fill-opacity="0.6"/>
<path d="M1183.57 397.279L1188.76 394.684L1195.62 397.279V404.508L1188.76 406.547L1182.46 402.654L1183.57 397.279Z" fill="black"/>
<path d="M1173.93 383.932V388.566L1171.52 390.605H1167.63L1166.33 387.825L1167.63 383.932L1169.86 382.264L1173.93 383.932Z" fill="black"/>
<path d="M1183.57 397.279L1188.76 394.684L1195.62 397.279V404.508L1188.76 406.547L1182.46 402.654L1183.57 397.279Z" stroke="black"/>
<path d="M1173.93 383.932V388.566L1171.52 390.605H1167.63L1166.33 387.825L1167.63 383.932L1169.86 382.264L1173.93 383.932Z" stroke="black"/>
<path d="M1180.61 385.415C1185.52 388.05 1180.61 404.323 1175.23 411.181C1169.86 418.04 1173.93 416.742 1173.93 421.376C1173.93 426.011 1157.81 416.371 1157.81 416.371C1157.81 416.371 1146.82 409.883 1149.46 401.357C1151.51 394.776 1168.74 391.532 1168.74 391.532C1168.74 391.532 1176.01 382.951 1180.61 385.415Z" fill="#BFA57D"/>
<path d="M1165.9 401.766C1164.26 396.522 1156.06 393.886 1152.45 396.942C1148.84 399.997 1147.85 403.052 1152.45 404.982C1157.04 406.912 1163.91 411.736 1165.9 406.912C1166.67 405.049 1166.5 403.688 1165.9 401.766Z" fill="black" stroke="black"/>
<path d="M1165.9 401.766C1164.26 396.522 1156.06 393.886 1152.45 396.942C1148.84 399.997 1147.85 403.052 1152.45 404.982C1157.04 406.912 1163.91 411.736 1165.9 406.912C1166.67 405.049 1166.5 403.688 1165.9 401.766Z" fill="black" stroke="black"/>
<path d="M1167.07 396.352L1162.07 393.757L1166.15 393.386L1170.6 397.464L1171.71 404.508L1167.07 396.352Z" fill="#3A2C22"/>
<path d="M1155.85 410.844L1158.44 411.586L1155.85 408.991L1152.99 408.03H1152.51L1152.99 409.361L1155.85 410.844Z" fill="#3A2C22"/>
<path d="M1186.72 369.474C1183.65 372.021 1178.52 377.377 1178.01 381.337C1177.76 383.276 1188.95 387.825 1188.95 387.825C1188.95 387.825 1200.27 387.62 1200.26 378.927C1200.24 371.058 1192.78 364.453 1186.72 369.474Z" fill="#7C6253" fill-opacity="0.58"/>
<path d="M1204.52 460.674C1204.52 460.674 1207.19 450.295 1211.75 451.221C1216.34 452.154 1215.81 458.389 1214.53 462.899C1212.39 470.431 1203.45 469.599 1195.62 469.572C1189.3 469.55 1182.69 470.871 1180.05 465.123C1178.6 461.965 1178.83 459.478 1180.05 456.226C1183.47 447.135 1204.52 460.674 1204.52 460.674Z" fill="#7C6253" fill-opacity="0.58"/>
<path d="M1232.88 527.406C1236.95 529.648 1240.26 532.215 1240.11 536.86C1239.87 543.97 1229.41 540.192 1222.31 540.753C1218.2 541.078 1214.21 544.066 1211.75 540.753C1209.33 537.496 1214.53 530.743 1214.53 530.743C1214.53 530.743 1226.5 523.893 1232.88 527.406Z" fill="#7C6253" fill-opacity="0.58"/>
<path d="M1247.89 486.255C1259.82 488.393 1249.49 448.563 1240.11 456.226C1233.14 461.917 1231.73 471.576 1236.77 479.026C1239.68 483.315 1242.8 485.341 1247.89 486.255Z" fill="#7C6253" fill-opacity="0.58"/>
<path d="M1181.63 396.952C1178.92 402.691 1181.24 409.305 1186.64 411.79C1192.03 414.275 1198.65 411.778 1201.36 406.039C1204.07 400.3 1201.75 393.686 1196.36 391.201C1190.96 388.716 1184.34 391.213 1181.63 396.952Z" stroke="#F5F5F5" stroke-width="3"/>
<path d="M1175.23 385.786C1175.23 385.786 1175.05 380.143 1172.45 378.742C1170.54 377.713 1168.9 377.933 1166.89 378.742C1163.61 380.06 1162.08 382.994 1162.26 386.527C1162.36 388.635 1162.44 390.524 1164.29 391.532C1165.69 392.293 1168.37 391.532 1168.37 391.532" stroke="#F5F5F5" stroke-width="2"/>
<path d="M1175.31 386.049C1175.31 386.049 1175.4 381.428 1173.46 379.746C1172.13 378.591 1170.95 378.38 1169.19 378.263C1167.58 378.156 1166.52 378.19 1165.12 379.005C1163.31 380.056 1162.72 381.446 1162.15 383.454C1161.63 385.263 1161.71 386.443 1162.15 388.273C1162.42 389.411 1162.52 390.151 1163.26 391.054C1163.69 391.569 1163.97 391.857 1164.56 392.166C1165.78 392.803 1168.08 392.166 1168.08 392.166" stroke="black"/>
<path d="M1179.44 401.542C1179.44 407.674 1184.9 412.72 1191.73 412.72C1198.56 412.72 1204.02 407.674 1204.02 401.542C1204.02 395.41 1198.56 390.364 1191.73 390.364C1184.9 390.364 1179.44 395.41 1179.44 401.542Z" stroke="black"/>
<path d="M1193.03 379.113C1193.03 379.113 1185.73 385.73 1186.17 381.893C1186.6 378.057 1183.64 373.366 1187.28 372.069C1189.45 371.296 1191.61 371.555 1193.03 373.366C1194.41 375.133 1193.03 379.113 1193.03 379.113Z" fill="#896C5A"/>
<path d="M1183.2 465.494C1183.2 465.494 1184.25 461.872 1186.17 461.045C1189.1 459.78 1192.99 462.302 1193.03 465.494C1193.07 469.33 1183.2 465.494 1183.2 465.494Z" fill="#896C5A"/>
<path d="M1237.7 467.348L1243.82 461.045C1243.82 461.045 1233.61 464.852 1234.18 469.943C1234.65 474.119 1238.74 479.628 1242.15 477.172C1245.57 474.71 1237.7 467.348 1237.7 467.348Z" fill="#896C5A"/>
<path d="M1230.92 392.122C1227.34 393.625 1226.89 387.171 1225.92 383.41C1224.62 378.405 1245.01 381.556 1245.01 383.41C1245.01 385.264 1236.67 389.713 1230.92 392.122Z" fill="#896C5A"/>
</svg>
