<svg width="46" height="42" viewBox="0 0 46 42" fill="none" xmlns="http://www.w3.org/2000/svg">
<g clip-path="url(#clip0_49_268)">
<path d="M30.2407 18.2801C32.3705 18.2801 34.0969 16.7776 34.0969 14.9242C34.0969 13.0708 32.3705 11.5684 30.2407 11.5684C28.111 11.5684 26.3845 13.0708 26.3845 14.9242C26.3845 16.7776 28.111 18.2801 30.2407 18.2801Z" fill="black"/>
<path d="M45.0224 15.8783C45.0224 15.8783 42.787 14.6297 39.6769 13.1345C36.5667 11.6392 34.6887 15.1436 34.6887 15.1436C34.3285 18.9425 30.2407 18.9179 30.2407 18.9179C25.6913 18.4027 25.6956 14.5561 25.6956 14.5561C26.1058 10.8554 30.2407 10.7327 30.2407 10.7327C34.0684 11.0054 34.5858 13.9182 34.5858 13.9182C35.7163 11.7619 38.2862 11.9091 38.2862 11.9091L32.3761 5.93068L23.5831 3.96923L19.7855 0H15.0575L11.8716 4.65622L12.7449 8.8708C8.01684 15.0945 7.55375 16.5653 7.55375 16.5653C5.83861 18.7216 6.37174 27.1972 6.37174 27.1972L5.96153 29.0591L0 42H38.4391L35.0989 30.1891C33.7368 30.1891 28.4699 34.5999 28.4699 34.5999C27.8796 34.7962 27.9567 34.5999 27.9567 34.5999C27.9567 33.1551 33.7125 29.3072 33.7125 29.3072L41.6264 25.2889L42.8084 22.0543C44.3235 21.2937 45.0181 20.5345 45.0181 20.5345C47.2277 17.1037 45.0224 15.8783 45.0224 15.8783ZM44.0547 19.8107C42.9571 20.6217 40.9017 18.7285 41.5035 17.3777L44.7637 16.8324C44.7637 16.8324 45.1496 18.9997 44.0505 19.8107H44.0547Z" fill="black"/>
<path d="M34.0969 6.17456L38.5935 10.978L38.8507 7.84158L37.4629 6.17456H34.0969Z" fill="black"/>
</g>
<defs>
<clipPath id="clip0_49_268">
<rect width="46" height="42" fill="white"/>
</clipPath>
</defs>
</svg>
