<svg width="562" height="603" viewBox="0 0 562 603" fill="none" xmlns="http://www.w3.org/2000/svg">
<path d="M52.1443 556.206L123.988 581.12L291.429 579.961L348.788 595.604L366.169 591.548H395.138L413.678 595.604L446.703 602.557L476.831 587.493L480.887 579.961V563.159L465.243 530.713L454.814 520.864L444.965 511.014L433.377 501.744L415.416 488.419L417.734 464.664L453.656 304.755L452.497 298.381L449.021 297.223L453.656 273.468L455.394 238.705L458.87 168.021L468.14 158.751H478.569L501.165 144.845L509.856 132.099L516.229 111.821H521.443L530.134 107.186L540.563 97.9155L555.047 92.701L556.785 88.066L557.944 78.7959L556.785 74.1608V68.367L557.944 65.4701L559.103 53.8825L556.785 49.8268L548.674 46.3505L534.19 43.4536L516.229 45.1918L503.482 41.1361L491.315 34.1835L473.355 19.699L462.926 14.4845L451.338 4.63505L436.854 0L422.948 4.63505H417.734H410.202L382.971 9.2701H377.177L354.581 2.89691H339.517V18.5402L350.526 23.7546L343.573 27.2309L331.406 18.5402L316.342 15.0639H305.913L291.429 18.5402L285.056 23.7546L278.682 50.9856L287.373 55.0412L300.12 61.4144L301.858 64.8907L300.12 77.6371L287.373 105.447L260.142 141.369L230.014 168.6L157.592 216.109L114.138 242.761L74.7402 285.056L36.501 337.2L12.167 407.305L4.63501 452.497V503.482L22.5958 538.825L52.1443 556.206Z" fill="#3F2F20"/>
<path d="M462.346 16.8021C465.136 14.8564 471.037 17.3815 471.037 17.3815L477.41 22.5959C477.41 22.5959 488.998 33.0248 491.895 34.7629C494.792 36.5011 506.222 42.1559 516.229 43.4537C522.287 44.2393 525.784 42.954 531.872 43.4537C537.581 43.9222 540.864 44.1434 546.357 45.7712C551.313 47.2401 558.524 50.9856 558.524 50.9856L560.841 61.9939L562 70.6846L558.524 77.6372V84.0104L556.206 90.9629C556.206 90.9629 543.222 105.774 531.872 109.503C526.854 111.152 523.828 111.861 518.546 111.821C513.487 111.782 510.167 112.059 505.8 109.503C500.004 106.111 496.53 95.0186 496.53 95.0186C496.53 95.0186 491.315 93.8598 485.522 90.9629C479.728 88.066 489.577 64.8908 489.577 64.8908L459.449 21.4372C459.449 21.4372 460.596 18.0231 462.346 16.8021Z" fill="#BFA57D"/>
<path d="M82.8515 477.99L53.3031 542.88L103.13 555.047V537.666V510.435L111.241 484.942L130.361 453.656L147.742 444.965L169.759 453.656L192.355 472.196L213.212 491.316L237.546 515.07V537.666L225.379 557.944L256.087 555.047H304.755L344.153 571.85L360.955 563.738L387.027 542.88L417.734 529.555H444.965L406.726 506.959L392.241 497.109V463.505L399.773 418.893L414.258 371.384L433.377 317.501L438.012 294.326V279.262L450.759 173.235H459.449V258.984V287.373L450.759 317.501L438.012 371.384L414.258 472.196L417.734 491.316L433.377 497.109L464.085 529.555L481.466 571.85L477.99 585.755L444.965 602.557L395.138 590.969H367.907L344.153 596.184L289.111 581.12H245.658H137.313L111.241 575.905L48.0887 555.047L19.1196 537.666L0 498.268V462.346L12.167 403.25L33.0247 347.05L53.3031 307.652L96.1773 268.254L137.313 233.491L161.647 224.8L192.355 220.165L221.903 233.491L237.546 275.206L181.926 255.507L125.726 300.12L103.13 395.138L82.8515 477.99Z" fill="#24170A"/>
<path d="M314.025 68.3671L328.509 78.2166L319.239 58.5176L314.025 52.1444H307.652L305.334 42.8743L303.596 32.4455H319.239L323.295 42.8743L331.986 47.5094L342.994 45.1919L333.724 60.8351L328.509 78.2166L350.526 82.2723H360.955L374.28 73.5815L392.241 68.3671L399.773 82.2723V98.4949V125.146L414.258 135.575H433.377L442.647 148.322H459.449L500.006 115.876L505.221 112.979L516.808 109.503L511.014 130.94L500.006 145.425L480.307 159.33H467.561L459.449 168.021H425.845L406.726 162.227L392.241 154.695L406.726 173.235L409.623 199.887L414.258 236.967V262.46L409.623 282.738L406.726 300.12L381.812 282.738L360.955 270.571L342.994 256.666L320.977 228.856L301.858 192.355L303.596 166.283L314.025 140.21L333.724 118.773L342.994 103.709L328.509 98.4949L314.025 91.5424L309.969 73.5815L311.997 70.9743L307.238 63.7321L305.334 62.5733L297.223 60.8351L278.103 49.8269L280.421 43.4537L297.223 60.8351H305.334L314.025 68.3671Z" fill="#24170A"/>
<path d="M289.111 270.571L256.087 282.738H245.658H213.212L181.926 307.652L147.742 354.002L130.361 403.25L161.647 428.742L201.625 453.656L245.658 491.316L283.318 524.92L320.977 529.555L344.153 510.435L360.955 453.656V395.138L350.526 325.612L289.111 270.571Z" fill="#24170A"/>
<path d="M268.833 173.235L245.658 199.887L243.34 202.784L292.588 258.984L342.994 294.326L368.487 341.256L399.773 382.392V317.501L356.899 279.262L309.969 236.967L268.833 173.235Z" fill="#24170A"/>
<path d="M438.012 82.2723L431.06 73.5815L426.425 86.3279L425.845 95.0187L421.79 102.551L425.845 115.876L440.33 125.146L450.759 128.623H459.449L476.252 125.146L485.522 115.876L490.157 106.606L485.522 95.0187L480.307 82.2723L471.616 84.5898H450.759L438.012 82.2723Z" fill="#24170A"/>
<path d="M454.814 49.8269V47.5094L455.973 45.7712L458.291 43.4537L463.505 41.7156H468.72L473.934 43.4537L478.569 48.0888L479.148 52.7238V56.7795L476.831 60.2558L472.775 63.7321L468.72 66.0496L465.823 66.629L463.505 66.0496L461.767 64.8908L458.87 61.4145L456.553 57.9382L454.814 54.462V49.8269Z" fill="#24170A"/>
<path d="M290.849 23.7547L285.635 27.8104V22.596L294.326 19.6991L317.501 15.6434L328.509 19.6991L342.994 29.5486L340.676 39.9774L324.454 29.5486L311.997 26.0723L290.849 23.7547Z" fill="#24170A"/>
<path d="M378.336 12.1671L350.526 24.9135L339.518 17.9609L337.2 13.9053V7.53206L339.518 2.31763H352.843L373.122 8.69082L378.336 12.1671Z" fill="#24170A"/>
<path d="M541.142 54.462L549.833 48.0888L558.524 51.565L561.421 66.629L556.786 70.1053L542.301 73.0022L536.507 70.1053L535.348 65.4702L536.507 59.097L541.142 54.462Z" fill="#24170A"/>
<path d="M530.713 53.8825L541.721 45.1918L535.928 43.4536L524.919 53.8825L527.237 68.9464L530.713 53.8825Z" fill="#3A2C22"/>
<path d="M544.039 78.7959L557.365 77.6371V79.9546L549.253 81.1134L544.039 78.7959Z" fill="#3A2C22"/>
<path d="M460.029 12.7464L464.664 15.6433L460.029 18.5402L459.449 22.0165V23.7546L457.711 28.969C457.711 28.969 454.634 35.6368 451.338 38.8185C441.244 48.5608 415.416 38.8185 415.416 38.8185C415.416 38.8185 401.289 47.6791 391.082 49.8268C381.34 51.8767 365.59 49.8268 365.59 49.8268C365.59 49.8268 354.86 52.9824 349.367 49.8268C341.468 45.2892 343.573 27.2309 343.573 27.2309L349.367 24.334L376.018 10.4288L409.623 4.63502H422.369L436.854 0.579346L451.338 4.63502L460.029 12.7464Z" fill="#554132"/>
<path d="M436.854 167.441H457.711V224.221L451.338 282.738L436.854 312.287L405.567 341.256L415.416 312.287L427.004 272.309V205.68L436.854 167.441Z" fill="#554132"/>
<path d="M343.573 115.297C331.985 102.55 325.54 103.828 311.128 105C282.366 107.338 299.659 191.878 325 205.68C337.121 212.282 395.138 278.103 405.567 250.293C415.996 222.482 355.161 128.043 343.573 115.297Z" fill="#554132"/>
<path d="M206.839 224.221C206.839 224.221 238.581 158.773 252.031 179.608C257.619 188.266 256.087 205.68 256.087 205.68L301.278 258.404L365.59 319.819L391.082 406.146L405.567 487.26C405.567 487.26 426.284 492.977 436.854 501.165C456.533 516.41 476.665 536.714 464.664 558.524C458.248 570.184 448.959 572.692 436.854 578.223C403.513 593.455 363.634 598.472 343.573 567.794C329.333 546.016 344.868 527.153 343.573 501.165C341.713 463.829 343.19 441.81 331.985 406.146C325.244 384.689 323.236 370.678 308.81 353.423C293.15 334.69 256.087 319.819 256.087 319.819C256.087 319.819 224.876 280.657 228.5 245.5C229.6 234.824 206.839 224.221 206.839 224.221Z" fill="#554132"/>
<path d="M118.194 299.54C118.194 299.54 147.496 246.852 170.917 258.404C190.459 268.042 185.402 312.287 185.402 312.287L198.148 353.423L243.34 424.687L273.468 462.346C273.468 462.346 322.036 554.225 284.476 558.524C280.205 559.013 277.767 558.524 273.468 558.524C253.783 558.524 231.285 576.409 223.062 558.524C219.281 550.301 223.062 544.399 223.062 535.348C223.062 521.999 230.419 512.304 223.062 501.165C216.921 491.868 207.424 493.433 198.148 487.26C181.208 475.985 179.669 453.151 159.33 452.497C147.814 452.127 141.215 456.121 131.52 462.346C120.467 469.443 114.477 475.356 108.924 487.26C100.984 504.279 115.681 517.826 108.924 535.348C105.04 545.42 103.142 553.014 93.8597 558.524C76.2832 568.958 49.998 555.557 46.9298 535.348C44.6339 520.226 66.0494 501.165 66.0494 501.165L78.7958 462.346L46.9298 424.687L66.0494 319.819L118.194 299.54Z" fill="#554132"/>
<path d="M311.128 23.7546C311.128 23.7546 326.64 41.218 334.303 34.7629C336.944 32.5378 339.539 30.6319 338.938 27.2309C338.464 24.5479 336.424 23.726 334.303 22.0165C328.047 16.975 322.042 19.0613 314.025 18.5402C309.057 18.2173 306.214 17.8913 301.278 18.5402C296.163 19.2127 288.532 22.0165 288.532 22.0165C288.532 22.0165 279.871 34.5739 285.056 38.8185C290.907 43.6089 290.165 26.4713 297.223 23.7546C302.29 21.8038 311.128 23.7546 311.128 23.7546Z" fill="#554132"/>
<path d="M450.179 236.967C450.179 236.967 443.806 198.728 450.179 183.085C456.552 167.441 457.711 190.037 457.711 190.037C457.711 190.037 462.926 242.761 450.179 274.047C437.433 305.334 439.216 287.339 429.322 290.27C407.889 296.62 450.179 236.967 450.179 236.967Z" fill="#8B6F60" fill-opacity="0.49"/>
<path d="M446.703 4.05573L457.711 11.0083C457.711 11.0083 461.767 13.643 461.767 16.2227C461.767 18.8025 460.268 21.7778 457.711 21.4372C455.086 21.0875 455.394 15.064 455.394 15.064L442.647 8.69078C442.647 8.69078 423.255 8.43209 427.583 4.05573C430.053 1.55824 436.274 1.73821 436.274 1.73821L446.703 4.05573Z" fill="#8B6F60" fill-opacity="0.49"/>
<path d="M326.771 152.957C326.771 152.957 308.824 125.875 301.278 122.25C290.395 117.02 322.733 106.896 331.406 115.297C336.924 120.642 343.136 131.468 336.041 134.417C329.534 137.121 326.771 152.957 326.771 152.957Z" fill="#8B6F60" fill-opacity="0.49"/>
<path d="M305.334 286.214C305.334 286.214 275.916 219.166 254.928 236.967L254.792 237.082C249.405 241.651 245.455 245 244.499 252.031C242.702 265.236 270.571 274.047 270.571 274.047C270.571 274.047 319.104 331.803 316.342 309.39C315.117 299.445 305.334 286.214 305.334 286.214Z" fill="#8B6F60" fill-opacity="0.49"/>
<path d="M135.575 319.239L155.274 302.437L173.814 328.509L161.647 334.883L135.575 347.05V319.239Z" fill="#8B6F60" fill-opacity="0.49"/>
<path d="M486.466 42.5903C492.832 56.075 487.156 71.9582 473.846 78.0881C460.536 84.218 444.568 78.3034 438.202 64.8186C431.835 51.3339 437.512 35.4507 450.821 29.3208C464.131 23.1909 480.099 29.1056 486.466 42.5903Z" stroke="#F5F5F5" stroke-width="3"/>
<path d="M469.299 43.4536L475.672 47.5093L477.99 55.0412L471.616 61.9938H462.926L460.608 52.7237V47.5093L469.299 43.4536Z" fill="black" stroke="black"/>
<path d="M484.501 41.6426C490.971 55.3468 485.796 71.1881 473.041 77.0627C460.286 82.9373 444.673 76.6699 438.202 62.9656C431.732 49.2613 436.907 33.42 449.662 27.5454C462.418 21.6709 478.031 27.9383 484.501 41.6426Z" stroke="black"/>
<path d="M376.788 479.808C388.807 474.894 400.04 471.223 409.912 479.808C413.317 482.768 415.553 484.784 416.766 489.192C420.135 501.435 397.184 491.509 385.926 496.817C377.998 500.555 367.08 509.134 367.08 509.134C367.08 509.134 350.365 527.297 343.664 519.692C336.964 512.086 349.794 504.661 356.229 496.817C362.871 488.719 367.209 483.724 376.788 479.808Z" fill="#24170A" fill-opacity="0.87"/>
</svg>
