<svg width="194" height="220" viewBox="0 0 194 220" fill="none" xmlns="http://www.w3.org/2000/svg">
<g id="bear">
<g id="Group 1">
<path id="Vector 1" d="M100.382 29.1576L105.363 32.2257L108.731 29.6381L114.618 26.8763L119.327 25.6756L123.577 24.7187L127.732 24.2396L134.211 25.354L138.133 28.5624L142.98 31.6567L147.46 36.0623L150.772 37.9481L154.11 38.8389L159.05 38.9783L162.976 40.0849L167.889 41.2193L169.199 44.0443L169.681 48.2401L167.279 49.3672L164.475 50.6821L161.219 54.1749L160.313 58.5307L156.308 60.4092L154.441 63.742L147.46 67.8119L142.98 71.0064L142.98 74.1634L138.133 78.1593L138.133 82.7792L138.133 88.6186L138.133 114.412L100.382 126.509L89.1105 114.412L64.3819 85.1701L70.0425 82.7792L73.3083 78.1593L80.7108 71.0064L85.5269 63.742L90.6892 58.5307L92.408 54.0255L92.3262 49.6419L93.0189 45.8776L93.4983 42.7047L91.5223 42.6489L85.5269 39.1808L87.886 30.5973L90.6892 29.2824L97.4443 28.079L100.382 29.1576Z" fill="#2C2420" stroke="#53443C"/>
<path id="Vector 2" d="M132.799 39.7263L138.815 36.9044L135.871 35.8202L132.765 33.333L129.122 28.6329L128.823 24.8288L134.225 22.7881L138.346 24.3059L143.193 28.4417L141.35 30.7854L143.227 34.835L145.479 39.6946L147.169 43.3393L144.361 44.6562L137.945 47.6662L136.255 44.0215L132.083 44.4998L132.799 39.7263Z" fill="#8B6F60"/>
<g id="Vector 3">
<path d="M115.319 43.2592L120.509 40.8248L123.784 43.6978L127.672 45.7938L130.228 46.0648L132.84 51.6991L137.847 56.2097L145.327 56.6203L153.394 57.2461L155.259 61.2706L152.013 64.7531L146.741 62.8164L137.317 61.3578L128.344 57.7277L125.359 51.2885L115.319 43.2592Z" fill="#8B6F60" fill-opacity="0.63"/>
<path d="M114.371 64.282L114.181 56.5319L118.602 60.8274L127.445 69.4185L136.366 75.033L141.855 75.033L139.896 79.6389L137.966 81.6315L120.986 72.2193L114.162 72.2193L107.424 66.0709L114.371 64.282Z" fill="#8B6F60" fill-opacity="0.63"/>
<path d="M125.377 35.6011L130.798 28.423L129.244 25.0697L119.091 27.2811L111.401 34.8078L114.2 40.8446L120.986 37.661L125.377 35.6011Z" fill="#8B6F60" fill-opacity="0.63"/>
</g>
<g id="Vector 4">
<path d="M146.751 53.0751L137.725 58.7829L135.727 59.7199L134.579 63.5376L139.782 63.2209L136.914 68.5742L145.596 67.3701L150.064 62.4056L146.751 53.0751Z" fill="#1D1514"/>
<path d="M96.2287 42.4684L101.545 34.5525L96.8066 36.9793L95.6509 35.2459L95.6509 31.779L89.1212 34.5525L89.988 38.1349L93.0792 39.2905L96.2287 42.4684Z" fill="#1D1514"/>
<path d="M93.0792 47.1247L112.14 56.0489L113.738 55.2994L120.564 58.483L123.182 64.1313L125.8 69.7797L132.627 76.401L128.375 68.5742L136.914 69.7797L137.725 74.5019L139.782 72.9688L150.064 68.5742L141.438 76.401L132.073 79.1165L116.73 72.4696L107.039 68.5742L119.349 67.403L99.9413 58.2118L108.845 56.6331L93.0792 53.0751L93.0792 47.1247Z" fill="#1D1514"/>
<path d="M112.14 56.0489L93.0792 47.1247L93.0792 53.0751L115.841 58.2118L117.723 59.8152L112.14 56.0489ZM112.14 56.0489L99.9413 58.2118L119.349 67.403L107.039 68.5742L126.421 76.365L132.073 79.1165M112.14 56.0489L113.738 55.2994L120.564 58.483L123.182 64.1313L125.8 69.7797L132.627 76.401L128.375 68.5742L136.914 69.7797L137.725 74.5019L139.782 72.9688L150.064 68.5742L141.438 76.401L132.073 79.1165M132.073 79.1165L116.73 72.4696M137.725 58.7829L146.751 53.0751L150.064 62.4056L145.596 67.3701L136.914 68.5742L139.782 63.2209L134.579 63.5376L135.727 59.7199L137.725 58.7829ZM101.545 34.5525L96.2287 42.4684L93.0792 39.2905L89.988 38.1349L89.1212 34.5525L95.6509 31.779L95.6509 35.2459L96.8066 36.9793L101.545 34.5525Z" stroke="#1D1514"/>
</g>
<path id="Vector 6" d="M146.383 29.9421L143.348 27.8757L141.71 30.6003L146.513 34.7039L147.817 37.5154L150.423 43.1386L149.716 47.8714L149.591 52.8196L152.881 54.6996L156.666 60.7178L162.119 58.1602L165.285 54.8982L170.662 52.3756L171.153 48.4649L172.704 45.4007L171.502 39.671L167.825 37.9094L163.531 36.9901L158.717 36.9112L151.005 34.1835L146.383 29.9421Z" fill="#D8BE97"/>
<g id="Vector 7">
<path d="M168.95 38.4046L170.976 39.2899L171.723 40.9017L172.454 43.4073L171.697 44.332L169.676 45.8115L166.727 46.6636L164.552 45.0665L164.778 43.4002L168.95 38.4046Z" fill="#1D1514"/>
<path d="M171.723 40.9017L170.976 39.2899L168.95 38.4046L164.778 43.4002L164.552 45.0665L166.727 46.6636L169.676 45.8115L171.697 44.332L172.454 43.4073M171.723 40.9017L171.346 43.5747L172.454 43.4073M171.723 40.9017L172.454 43.4073" stroke="#1D1514"/>
</g>
<path id="Ellipse 1" d="M146.902 38.7102C147.828 40.7071 146.774 43.1723 144.548 44.2164C142.323 45.2605 141.215 43.8095 140.289 41.8125C139.363 39.8156 138.97 38.029 141.196 36.9849C143.422 35.9408 145.977 36.7133 146.902 38.7102Z" fill="#1D1514"/>
<path id="Ellipse 2" d="M149.673 38.1148C152.044 43.2302 150.043 48.9381 145.606 51.0192C141.17 53.1002 135.537 50.9733 133.166 45.858C130.795 40.7427 132.796 35.0347 137.232 32.9537C141.669 30.8727 147.302 32.9995 149.673 38.1148Z" stroke="#F5F5F5" stroke-width="4"/>
<path id="Ellipse 3" d="M150.291 37.825C152.902 43.4585 151.052 49.5694 146.602 51.6566C142.153 53.7439 136.31 51.2417 133.699 45.6083C131.087 39.9748 132.938 33.8638 137.387 31.7766C141.837 29.6894 147.679 32.1915 150.291 37.825Z" stroke="#1D1514" stroke-width="2"/>
<path id="Vector 21" d="M167.85 37.8347L165.659 37.4828L163.558 41.2904L163.029 43.2944L164.287 40.9486L167.85 37.8347Z" fill="#1D1514"/>
<g id="Vector 22">
<path d="M168.278 49.6362L171.27 48.2327L171.129 49.3557L169.983 49.7421L169.459 49.6108L168.278 49.6362Z" fill="#1D1514"/>
<path d="M167.245 50.1211L168.278 49.6362M168.278 49.6362L171.27 48.2327L171.129 49.3557L169.983 49.7421L169.459 49.6108L168.278 49.6362Z" stroke="#1D1514"/>
</g>
<g id="Vector 24">
<path d="M150.177 46.1538L149.655 52.9572L152.752 53.7965L156.117 58.9678L159.766 58.9113L156.747 60.3276L154.687 59.6386L153.256 56.5528L150.528 54.8401L149.655 52.9572L149.135 47.6615L150.177 46.1538Z" fill="#1D1514"/>
<path d="M149.655 52.9572L150.177 46.1538L149.135 47.6615L149.655 52.9572ZM149.655 52.9572L152.752 53.7965L156.117 58.9678M149.655 52.9572L150.528 54.8401L153.256 56.5528L154.687 59.6386L156.747 60.3276M156.117 58.9678L156.747 60.3276M156.117 58.9678L159.766 58.9113L156.747 60.3276" stroke="#1D1514"/>
</g>
</g>
<path id="Vector 25" d="M29.5092 113.727L65.2 87.0172L138.758 113.727L136.364 130.147L131.576 147.443L126.571 175.467L114.819 170.65L105.461 191.449L102.85 203.272H95.4502L91.0976 195.609L85.2217 186.414L70.2054 175.467L50.1837 167.804L22.7627 203.272L1 186.414L15.1458 130.147L29.5092 113.727Z" fill="#2C231F"/>
<path id="Vector 26" d="M22.694 185.661L39.6632 165.295H48.4041L67.5395 173.304L83.6038 185.661L94.4708 196.874H100.141V182.458V123.876L48.4041 94.2598L83.6038 70.3764L121.166 123.876V173.304V182.458L127.072 187.492L138.411 196.874V204.54L129.67 207.858L127.072 211.52L121.166 215.868L105.81 214.037L89.2735 211.52H61.161H39.6632L26.1976 207.858L15.3306 201.222L15.3306 196.874L22.694 185.661Z" fill="#5F4A3F"/>
<path id="Vector 27" d="M129.05 106.724L135.364 81.4702L138.411 84.3003L135.364 115.214L129.05 106.724Z" fill="#8B6F60"/>
<path id="Vector 28" d="M139.03 121.042L127.903 176.229V182.142L139.03 194.406L143.612 204.48L134.667 215.211L123.54 215.868L120.267 176.229L126.158 174.477V165.06L130.303 136.372V121.042V113.596L139.03 121.042Z" fill="#8B6F60"/>
<path id="Vector 29" d="M43.8695 119.148L58.0634 108.627L63.5226 140.188L43.8695 154.158L30.5854 136.049L43.8695 119.148Z" fill="#61483A"/>
<path id="Vector 30" d="M91.6064 68.3916L95.8825 58.358V75.8077L91.6064 68.3916Z" fill="#8B6F60"/>
<g id="Vector 31">
<path d="M93.2977 79.6502L108.318 58.6217L122.032 71.7645L127.474 83.1549L125.079 96.0787L127.474 109.221L125.079 123.459L122.032 116.012L118.767 109.221L99.1752 89.9454L93.2977 79.6502Z" fill="#1D1514"/>
<path d="M132.045 113.821V126.088L129.651 159.383L125.079 181.288L135.093 190.488L138.358 198.811H127.474L125.079 181.288L122.032 174.935L125.079 146.021L132.045 113.821Z" fill="#1D1514"/>
<path d="M141.406 207.135H135.093H118.767L112.351 213.926L132.045 218.526H138.358L146.848 213.926L141.406 207.135Z" fill="#1D1514"/>
<path d="M110.495 215.459L99.1752 213.926L103.747 198.811L110.495 215.459Z" fill="#1D1514"/>
<path d="M87.4203 190.488L65.8696 174.935L73.7062 109.221L93.2977 120.831L99.1752 195.964L93.2977 198.811L87.4203 190.488Z" fill="#1D1514"/>
<path d="M32.1287 174.935L18.4147 195.964L15.3671 203.85L7.31282 198.811L3.6122 193.116L1 184.354L1.65305 171.212L7.31282 156.097L11.0134 146.021L18.4147 126.088L27.122 113.821L41.4891 99.8025L50.8495 96.0787L49.3257 94.9834L57.8153 89.9454L64.1282 84.2501L70.2233 79.6502L75.4477 76.5835L80.8898 70.8883L83.9373 66.7264L87.4203 62.3455L91.1209 58.6217V55.7741L91.9916 51.8313L93.2977 45.0408V54.8979V58.6217L87.4203 69.355L80.8898 75.4883L68.9172 83.1549L61.516 87.5358L65.8696 96.0787L68.9172 99.8025H61.516H55.2031L32.1287 120.831L15.3671 147.993L32.1287 174.935Z" fill="#1D1514"/>
<path d="M104.182 28.3933L108.318 31.2409L116.59 26.86L114.631 25.5457L108.318 23.5743H104.182V28.3933Z" fill="#1D1514"/>
<path d="M45.1897 211.078H36.4824L32.1287 203.85V195.964L39.5299 193.116V181.288L45.1897 171.212L50.8495 177.783L65.8696 188.516L75.4477 193.116V207.135L65.8696 211.078H45.1897Z" fill="#1D1514"/>
<path d="M80.8898 96.0787L87.4203 89.9454L99.1752 109.221L80.8898 96.0787Z" fill="#1D1514"/>
<path d="M125.079 181.288L129.651 159.383L132.045 126.088V113.821L125.079 146.021L122.032 174.935L125.079 181.288ZM125.079 181.288L135.093 190.488L138.358 198.811H127.474L125.079 181.288ZM55.2031 99.8025L32.1287 120.831L15.3671 147.993L32.1287 174.935L18.4147 195.964L15.3671 203.85L7.31282 198.811L3.6122 193.116L1 184.354L1.65305 171.212L7.31282 156.097L11.0134 146.021L18.4147 126.088L27.122 113.821L41.4891 99.8025L50.8495 96.0787M55.2031 99.8025L50.8495 96.0787M55.2031 99.8025H61.516H68.9172L65.8696 96.0787L61.516 87.5358L68.9172 83.1549L80.8898 75.4883L87.4203 69.355L93.2977 58.6217V54.8979V45.0408L91.9916 51.8313L91.1209 55.7741V58.6217L87.4203 62.3455L83.9373 66.7264L80.8898 70.8883L75.4477 76.5835L70.2233 79.6502L64.1282 84.2501L57.8153 89.9454M50.8495 96.0787L57.8153 89.9454M50.8495 96.0787L49.3257 94.9834L57.8153 89.9454M108.318 58.6217L93.2977 79.6502L99.1752 89.9454L118.767 109.221L122.032 116.012L125.079 123.459L127.474 109.221L125.079 96.0787L127.474 83.1549L122.032 71.7645L108.318 58.6217ZM135.093 207.135H141.406L146.848 213.926L138.358 218.526H132.045L112.351 213.926L118.767 207.135H135.093ZM99.1752 213.926L110.495 215.459L103.747 198.811L99.1752 213.926ZM65.8696 174.935L87.4203 190.488L93.2977 198.811L99.1752 195.964L93.2977 120.831L73.7062 109.221L65.8696 174.935ZM108.318 31.2409L104.182 28.3933V23.5743H108.318L114.631 25.5457L116.59 26.86L108.318 31.2409ZM36.4824 211.078H45.1897H65.8696L75.4477 207.135V193.116L65.8696 188.516L50.8495 177.783L45.1897 171.212L39.5299 181.288V193.116L32.1287 195.964V203.85L36.4824 211.078ZM87.4203 89.9454L80.8898 96.0787L99.1752 109.221L87.4203 89.9454Z" stroke="#1D1514"/>
</g>
<g id="Vector 32">
<path d="M92.1815 44.3494V44.1042L93.1961 42.6943H91.5114V42.3266L91.3896 42.6943L85.4805 39.2003L87.8563 30.6185L90.6586 29.2087L97.4205 28.1053L100.588 29.2087L105.279 32.2123L107.046 30.1894L115.452 25.7146L116.549 25.981L123.433 24.4887L127.941 23.937L129.525 24.1822L133.728 22.6497L138.663 24.3661L142.866 27.8601H143.414L144.328 28.2892L147.13 30.4346L149.323 32.2736L150.785 33.9287L151.638 34.2964L158.948 36.7484H164.066L166.259 37.2388L169.609 38.097L171.62 39.139L171.985 40.365L172.594 42.5717L173.082 45.3302L171.498 48.5177L170.584 52.8086L166.076 55.0154L162.665 58.0803L156.512 60.9613L155.05 63.7197L154.38 64.2101L151.273 65.8039L143.049 73.4662V74.2631L142.074 75.4278L140.125 79.7187L138.541 81.8028V86.7067L138.236 113.004L139.394 114.046L138.236 119.931L139.394 120.973L130.56 164.74L128.124 175.835V181.842L139.515 194.592L143.658 204.032V204.829L143.231 205.135L141.769 207.894L140.856 207.158L143.231 204.829V203.787L139.211 194.715L127.636 182.149V175.835L130.134 164.74L138.784 120.973L137.81 120.176V119.624L138.784 114.046L137.81 113.555V98.2308L138.236 84.8677V81.4963L140.125 78.9831L141.587 75.4278L142.561 74.2631L142.074 73.221L150.785 65.8039L154.38 63.7197L156.268 59.9192L158.035 59.3675L162.665 57.5899L165.832 54.4637L170.584 52.1343L171.193 48.2725L172.594 45.3302L172.29 43.1234L171.62 40.365L169.183 38.5873L168.208 38.097L165.832 37.5453L163.578 37.0549H158.644L151.516 34.5416L150.785 34.1738L148.958 32.2736L146.947 30.6185L145.425 29.3313L143.841 28.2892H143.049L138.236 24.3661L134.094 22.8336L129.525 24.4887L127.758 24.1822L123.433 24.7339L117.219 26.1437L114.843 26.7567L109.361 29.2087L107.046 30.9863L105.279 32.2123L100.406 29.3313L97.4205 28.1053L90.8413 29.3926L87.9781 30.7411L85.6632 39.2951L91.5114 42.3266H93.4608L92.7051 48.9468L92.4252 53.8507L91.9379 54.7089L92.2726 46.9852L92.1815 44.3494Z" fill="#1D1514"/>
<path d="M93.4608 42.3266L92.7051 48.9468M93.4608 42.3266H91.5114M93.4608 42.3266L91.5114 42.6943M93.4608 42.3266L93.1961 42.6943M92.7051 48.9468L92.4252 51.3987L92.2726 46.9852M92.7051 48.9468L92.4252 53.8507L91.9379 54.7089L92.2726 46.9852M92.2726 46.9852L92.1815 44.3494V44.1042L93.1961 42.6943M91.5114 42.3266V42.6943M91.5114 42.3266L91.3896 42.6943L85.4805 39.2003M91.5114 42.3266L85.6632 39.2951M91.5114 42.6943H93.1961M85.4805 39.2003L87.8563 30.6185M85.4805 39.2003L85.6632 39.2951M87.8563 30.6185L87.9781 30.7411M87.8563 30.6185L90.6586 29.2087M87.9781 30.7411L85.6632 39.2951M87.9781 30.7411L90.8413 29.3926M90.8413 29.3926L90.6586 29.2087M90.8413 29.3926L97.4205 28.1053M90.6586 29.2087L97.4205 28.1053M97.4205 28.1053L100.406 29.3313M97.4205 28.1053L100.588 29.2087M100.406 29.3313L100.588 29.2087M100.406 29.3313L105.279 32.2123M100.588 29.2087L105.279 32.2123M105.279 32.2123L107.046 30.1894L115.452 25.7146L116.549 25.981M105.279 32.2123L107.046 30.9863L109.361 29.2087L114.843 26.7567L117.219 26.1437M117.219 26.1437L123.433 24.7339L127.758 24.1822L129.525 24.4887L134.094 22.8336M117.219 26.1437L116.549 25.981M134.094 22.8336L133.728 22.6497M134.094 22.8336L138.236 24.3661L143.049 28.2892H143.841L145.425 29.3313L146.947 30.6185L148.958 32.2736L150.785 34.1738L151.516 34.5416L158.644 37.0549H163.578L165.832 37.5453L168.208 38.097L169.183 38.5873L171.62 40.365L172.29 43.1234L172.594 45.3302L171.193 48.2725L170.584 52.1343L165.832 54.4637L162.665 57.5899L158.035 59.3676L156.268 59.9192L154.38 63.7197L150.785 65.8039L142.074 73.221L142.561 74.2631L141.587 75.4278L140.125 78.9831L138.236 81.4963V84.8677L137.81 98.2308V113.555L138.784 114.046L137.81 119.624V120.176L138.784 120.973L130.134 164.74L127.636 175.835V182.149L139.211 194.715L143.231 203.787V204.829L140.856 207.158L141.769 207.894L143.231 205.136L143.658 204.829V204.032L139.515 194.592L128.124 181.842V175.835L130.56 164.74L139.394 120.973L138.236 119.931L139.394 114.046L138.236 113.004L138.541 86.7067V81.8028L140.125 79.7187L142.074 75.4278L143.049 74.2631V73.4662L151.273 65.8039L154.38 64.2101L155.05 63.7197L156.512 60.9613L162.665 58.0803L166.076 55.0154L170.584 52.8086L171.498 48.5177L173.082 45.3302L172.594 42.5717L171.985 40.365L171.62 39.139L169.609 38.097L166.259 37.2388L164.066 36.7484H158.948L151.638 34.2964L150.785 33.9287L149.323 32.2736L147.13 30.4346L144.328 28.2892L143.414 27.8601H142.866L138.663 24.3661L133.728 22.6497M133.728 22.6497L129.525 24.1822L127.941 23.937L123.433 24.4887L116.549 25.981" stroke="#1D1514"/>
</g>
<g id="Vector 33">
<path d="M158.289 60.5508L156.708 65.6497L153.487 70.503L147.286 74.6804H143.821L138.411 81.008L142.119 72.346V70.503L157.62 59.6293H158.289V60.5508Z" fill="#1D1514"/>
<path d="M143.821 74.6804H147.286L153.487 70.503L156.708 65.6497L158.289 60.5508V59.6293H157.62L142.119 70.503M143.821 74.6804L142.119 70.503M143.821 74.6804L138.411 81.008L142.119 72.346V70.503" stroke="#1D1514"/>
</g>
<path id="Vector 34" d="M132.864 107.843L138.758 82.2792V112.441L132.864 107.843Z" fill="#1D1514" stroke="#1D1514"/>
<g id="Vector 35">
<path d="M107.99 168.892L102.079 156.017V173.183L107.99 168.892Z" fill="#1D1514"/>
<path d="M107.99 115.676L118.534 124.627L107.99 120.52L102.079 124.627V120.52L107.99 115.676Z" fill="#1D1514"/>
<path d="M32.4186 206.473L16.0244 200.281V203.837L25.9585 208.006L39.9758 211.93H65.9384H89.8288L107.99 216.099L118.534 211.93V206.473L107.99 211.93L85.7455 206.473H56.37H32.4186Z" fill="#1D1514"/>
<path d="M107.99 168.892L102.079 156.017V173.183L107.99 168.892Z" stroke="#1D1514"/>
<path d="M107.99 115.676L118.534 124.627L107.99 120.52L102.079 124.627V120.52L107.99 115.676Z" stroke="#1D1514"/>
<path d="M32.4186 206.473L16.0244 200.281V203.837L25.9585 208.006L39.9758 211.93H65.9384H89.8288L107.99 216.099L118.534 211.93V206.473L107.99 211.93L85.7455 206.473H56.37H32.4186Z" stroke="#1D1514"/>
</g>
<path id="Vector 36" d="M118.517 151.329V129.89L121.825 175.156L125.93 186.977L115.76 180.913L118.517 170.501V151.329Z" fill="#1D1514" stroke="#1D1514"/>
<g id="Vector 37">
<path d="M78.3484 100.845L71.8442 84.3372V105.448L90.7487 111.401L78.3484 100.845Z" fill="#53443C"/>
<path d="M99.9275 100.845L82.9073 73.8433H90.7487L99.9275 100.845Z" fill="#53443C"/>
</g>
<g id="Vector 38">
<path d="M118.255 54.3849L113.685 43.2028L118.255 47.2578L124.774 56.9654L118.255 59.976V54.3849Z" fill="#1D1514"/>
<path d="M98.3305 29.9931H89.4348L97.5384 27.9656L101.194 29.4401L104.241 31.3448L105.764 33.0037L104.241 33.741L98.3305 29.9931Z" fill="#1D1514"/>
<path d="M86.3273 38.349L90.4706 41.4824L85.5962 39.0863L86.3273 38.349Z" fill="#1D1514"/>
<path d="M97.5384 27.9656L101.194 29.4401L104.241 31.3448L105.764 33.0037L104.241 33.741L98.3305 29.9931H89.4348L97.5384 27.9656ZM97.5384 27.9656L90.4706 28.9486M94.2482 45.2917L93.0905 42.3426L90.4706 41.4824M90.4706 41.4824L86.3273 38.349L85.5962 39.0863L90.4706 41.4824ZM113.685 43.2028L118.255 54.3849V59.976L124.774 56.9654L118.255 47.2578L113.685 43.2028Z" stroke="#1D1514"/>
</g>
</g>
</svg>
