<svg width="923" height="196" viewBox="0 0 923 196" fill="none" xmlns="http://www.w3.org/2000/svg">
<g id="long-tree">
<path id="Vector" d="M902.733 113C902.733 113 52.9303 113 0 196H969V117.216L902.733 113Z" fill="#7EAC59" fill-opacity="0.54"/>
<g id="Group 17">
<g id="Trees">
<path id="Vector_2" d="M870.745 163.865L881.262 163.826L881.086 115.635L870.568 115.674L870.745 163.865Z" fill="#57702D"/>
<path id="Vector_3" d="M822.388 163.476L836.13 163.425L835.7 46.2033L821.958 46.2537L822.388 163.476Z" fill="#2A7231"/>
<path id="Vector_4" d="M763.78 163.449L779.556 163.391L779.229 74.0792L763.452 74.137L763.78 163.449Z" fill="#57702D"/>
<path id="Vector_5" d="M875.838 100.219L870.637 115.909L881.154 115.871L875.838 100.219Z" fill="#7D964D"/>
<path id="Vector_6" d="M828.667 22.3036L822.064 46.7773L835.45 46.7282L828.667 22.3036Z" fill="#579E5A"/>
<path id="Vector_7" d="M771.268 52.8964L763.457 74.1779L779.234 74.1201L771.268 52.8964Z" fill="#7D964D"/>
<path id="Vector_8" d="M876.078 100.208L877.919 105.639L874.271 105.652L876.078 100.208Z" fill="#3A3728"/>
<path id="Vector_9" d="M828.468 22.289L830.391 29.2228L826.59 29.2367L828.468 22.289Z" fill="#3A3728"/>
<path id="Vector_10" d="M771.267 52.8965L773.633 59.2034L768.943 59.2206L771.267 52.8965Z" fill="#3A3728"/>
<path id="Vector_11" d="M881.335 115.635L876.077 115.654L876.253 163.846L881.512 163.826L881.335 115.635Z" fill="#405120"/>
<path id="Vector_12" d="M835.996 46.2032L829.303 46.2278L829.732 163.301L836.425 163.277L835.996 46.2032Z" fill="#214F22"/>
<path id="Vector_13" d="M779.233 74.1201L771.345 74.149L771.672 163.42L779.561 163.391L779.233 74.1201Z" fill="#405120"/>
<path id="Vector_14" opacity="0.8" d="M829.319 22.2826L859.581 72.4292L798.987 72.4646L829.319 22.2826Z" fill="#57702D"/>
<path id="Vector_15" opacity="0.8" d="M771.022 21.1868L804.495 107.45L737.429 107.489L771.022 21.1868Z" fill="#57702D"/>
<path id="Vector_16" opacity="0.8" d="M829.151 68.5883L856.518 132.509L801.7 132.541L829.151 68.5883Z" fill="#2F6B34"/>
</g>
</g>
<g id="Group 18">
<g id="Trees_2">
<path id="Vector_17" d="M411.745 175.865L422.262 175.827L422.086 127.635L411.568 127.674L411.745 175.865Z" fill="#57702D"/>
<path id="Vector_18" d="M363.388 175.476L377.13 175.426L376.7 58.2035L362.958 58.2538L363.388 175.476Z" fill="#2A7231"/>
<path id="Vector_19" d="M304.78 175.449L320.556 175.391L320.229 86.0793L304.452 86.1371L304.78 175.449Z" fill="#57702D"/>
<path id="Vector_20" d="M416.837 112.219L411.636 127.909L422.154 127.871L416.837 112.219Z" fill="#7D964D"/>
<path id="Vector_21" d="M369.667 34.3037L363.064 58.7774L376.45 58.7284L369.667 34.3037Z" fill="#579E5A"/>
<path id="Vector_22" d="M312.267 64.8966L304.457 86.178L320.233 86.1202L312.267 64.8966Z" fill="#7D964D"/>
<path id="Vector_23" d="M417.077 112.209L418.919 117.639L415.271 117.652L417.077 112.209Z" fill="#3A3728"/>
<path id="Vector_24" d="M369.467 34.2892L371.391 41.2229L367.59 41.2368L369.467 34.2892Z" fill="#3A3728"/>
<path id="Vector_25" d="M312.267 64.8966L314.633 71.2035L309.943 71.2207L312.267 64.8966Z" fill="#3A3728"/>
<path id="Vector_26" d="M422.335 127.635L417.077 127.654L417.253 175.846L422.512 175.826L422.335 127.635Z" fill="#405120"/>
<path id="Vector_27" d="M376.996 58.2034L370.303 58.2279L370.732 175.301L377.425 175.277L376.996 58.2034Z" fill="#214F22"/>
<path id="Vector_28" d="M320.233 86.1203L312.345 86.1492L312.672 175.42L320.561 175.391L320.233 86.1203Z" fill="#405120"/>
<path id="Vector_29" opacity="0.8" d="M370.319 26.2827L400.581 76.4293L339.987 76.4647L370.319 26.2827Z" fill="#57702D"/>
<path id="Vector_30" opacity="0.8" d="M312.022 50.1871L345.495 136.45L278.428 136.489L312.022 50.1871Z" fill="#57702D"/>
<path id="Vector_31" opacity="0.8" d="M373.151 73.5884L400.518 137.509L345.7 137.541L373.151 73.5884Z" fill="#2F6B34"/>
</g>
</g>
<path id="Vector_32" opacity="0.8" d="M878.499 75L899 124L858 124L878.499 75Z" fill="#2F6B34"/>
<path id="Vector_33" opacity="0.8" d="M417.499 96L438 145L397 145L417.499 96Z" fill="#2F6B34"/>
<g id="Trees_3">
<path id="Vector_34" d="M483.156 189.099L498.873 189.043L498.436 73.4448L482.719 73.5007L483.156 189.099Z" fill="#57702D"/>
<path id="Vector_35" d="M490.538 36.4479L482.822 74.0654L498.539 74.0094L490.538 36.4479Z" fill="#5B6A3E"/>
<path id="Vector_36" d="M490.897 36.423L493.668 49.4557L488.217 49.4751L490.897 36.423Z" fill="#3A3728"/>
<path id="Vector_37" d="M498.809 73.4452L490.951 73.4731L491.388 189.072L499.246 189.044L498.809 73.4452Z" fill="#405120"/>
</g>
<path id="Vector_38" opacity="0.8" d="M490.996 17L542 158L440 158L490.996 17Z" fill="#2F6B34"/>
<g id="Trees_4">
<path id="Vector_39" d="M675.387 178.099L688.638 178.052L688.27 80.8815L675.018 80.9285L675.387 178.099Z" fill="#57702D"/>
<path id="Vector_40" d="M681.61 49.7825L675.105 81.4033L688.356 81.3563L681.61 49.7825Z" fill="#5B6A3E"/>
<path id="Vector_41" d="M681.913 49.7615L684.25 60.7166L679.654 60.7329L681.913 49.7615Z" fill="#3A3728"/>
<path id="Vector_42" d="M688.585 80.882L681.959 80.9055L682.327 178.076L688.953 178.053L688.585 80.882Z" fill="#405120"/>
</g>
<path id="Vector_43" opacity="0.8" d="M681.997 31L725 150L639 150L681.997 31Z" fill="#2F6B34"/>
<g id="Trees_5">
<path id="Vector_44" d="M585.156 164.099L600.873 164.043L600.436 48.4448L584.719 48.5007L585.156 164.099Z" fill="#57702D"/>
<path id="Vector_45" d="M592.538 11.4479L584.822 49.0654L600.539 49.0094L592.538 11.4479Z" fill="#5B6A3E"/>
<path id="Vector_46" d="M592.897 11.423L595.668 24.4557L590.217 24.4751L592.897 11.423Z" fill="#3A3728"/>
<path id="Vector_47" d="M600.809 48.4452L592.951 48.4731L593.388 164.072L601.246 164.044L600.809 48.4452Z" fill="#405120"/>
</g>
<path id="Vector_48" opacity="0.8" d="M593.497 -8.11663e-09L642 84L545 84L593.497 -8.11663e-09Z" fill="#2F6B34"/>
</g>
</svg>
