<svg width="294" height="342" viewBox="0 0 294 342" fill="none" xmlns="http://www.w3.org/2000/svg">
<path d="M197.297 248.134C197.297 248.134 111.5 193 0 341.134L208 341.134L229 326.5L197.297 248.134Z" fill="#7EAC59"/>
<path d="M65.7956 298.098L87.4844 297.995L86.8819 86.7152L65.1931 86.8174L65.7956 298.098Z" fill="#57702D"/>
<path d="M75.9828 19.0957L65.3343 87.8495L87.0231 87.7473L75.9828 19.0957Z" fill="#5B6A3E"/>
<path d="M76.4783 19.0503L80.3026 42.8703L72.7801 42.9058L76.4783 19.0503Z" fill="#3A3728"/>
<path d="M87.3974 86.7159L76.553 86.767L77.1554 298.047L87.9998 297.996L87.3974 86.7159Z" fill="#405120"/>
<path opacity="0.8" d="M77.9951 -1.52936e-08L147 157L9 157L77.9951 -1.52936e-08Z" fill="#2F6B34"/>
<path d="M123.356 296.129L147.268 304.422L203 304.036L222.091 309.243L227.877 307.893H237.519L243.69 309.243L254.682 311.557L264.71 306.543L266.06 304.036V298.443L260.853 287.644L257.382 284.366L254.103 281.088L250.247 278.002L244.268 273.567L245.04 265.66L256.996 212.435L256.61 210.314L255.453 209.928L256.996 202.022L257.575 190.451L258.732 166.924L261.817 163.839H265.288L272.809 159.211L275.702 154.968L277.823 148.219H279.559L282.451 146.676L285.922 143.59L290.744 141.855L291.322 140.312L291.708 137.227L291.322 135.684V133.755L291.708 132.791L292.093 128.934L291.322 127.584L288.622 126.427L283.801 125.463L277.823 126.042L273.581 124.692L269.531 122.378L263.553 117.557L260.082 115.821L256.225 112.543L251.404 111L246.775 112.543H245.04H242.533L233.469 114.085H231.541L224.02 111.964H219.006V117.171L222.67 118.907L220.356 120.064L216.306 117.171L211.292 116.014H207.821L203 117.171L200.879 118.907L198.757 127.97L201.65 129.32L205.893 131.441L206.471 132.598L205.893 136.841L201.65 146.097L192.586 158.054L182.559 167.117L158.453 182.93L143.99 191.801L130.877 205.879L118.149 223.235L110.05 246.569L107.543 261.61V278.581L113.521 290.344L123.356 296.129Z" fill="#3F2F20"/>
<path d="M259.889 116.592C260.817 115.945 262.781 116.785 262.781 116.785L264.902 118.521C264.902 118.521 268.759 121.992 269.724 122.571C270.688 123.149 274.492 125.031 277.823 125.463C279.839 125.725 281.003 125.297 283.03 125.463C284.93 125.619 286.023 125.693 287.851 126.235C289.5 126.724 291.9 127.97 291.9 127.97L292.672 131.634L293.058 134.527L291.9 136.841V138.962L291.129 141.276C291.129 141.276 286.807 146.206 283.03 147.447C281.359 147.996 280.352 148.232 278.594 148.219C276.91 148.206 275.805 148.298 274.352 147.447C272.423 146.318 271.266 142.626 271.266 142.626C271.266 142.626 269.531 142.241 267.602 141.276C265.674 140.312 268.952 132.598 268.952 132.598L258.924 118.135C258.924 118.135 259.306 116.999 259.889 116.592Z" fill="#BFA57D"/>
<path d="M133.577 270.095L123.742 291.694L140.326 295.744V289.958V280.895L143.026 272.41L149.39 261.996L155.175 259.103L162.503 261.996L170.024 268.167L176.966 274.531L185.066 282.437V289.958L181.016 296.708L191.237 295.744H207.435L220.549 301.336L226.141 298.636L234.819 291.694L245.04 287.258H254.103L241.376 279.738L236.555 276.459V265.274L239.062 250.425L243.883 234.612L250.247 216.678L251.789 208.964V203.95L256.032 168.66H258.924V197.201V206.65L256.032 216.678L251.789 234.612L243.883 268.167L245.04 274.531L250.247 276.459L260.467 287.258L266.253 301.336L265.095 305.964L254.103 311.557L237.519 307.7H228.455L220.549 309.435L202.229 304.422H187.765H151.704L143.026 302.686L122.006 295.744L112.364 289.958L106 276.845V264.889L110.05 245.219L116.992 226.513L123.742 213.4L138.012 200.286L151.704 188.716L159.803 185.823L170.024 184.28L179.859 188.716L185.066 202.6L166.553 196.044L147.847 210.893L140.326 242.519L133.577 270.095Z" fill="#24170A"/>
<path d="M210.521 133.755L215.342 137.034L212.256 130.477L210.521 128.356H208.4L207.628 125.27L207.05 121.799H212.256L213.606 125.27L216.499 126.813L220.163 126.042L217.078 131.249L215.342 137.034L222.67 138.384H226.141L230.577 135.491L236.555 133.755L239.062 138.384V143.783V152.654L243.883 156.125H250.247L253.332 160.368H258.924L272.423 149.569L274.159 148.604L278.016 147.447L276.088 154.583L272.423 159.404L265.867 164.032H261.624L258.924 166.924H247.74L241.376 164.996L236.555 162.489L241.376 168.66L242.34 177.531L243.883 189.873V198.358L242.34 205.107L241.376 210.893L233.084 205.107L226.141 201.058L220.163 196.429L212.835 187.173L206.471 175.024L207.05 166.346L210.521 157.668L217.078 150.533L220.163 145.519L215.342 143.783L210.521 141.469L209.171 135.491L209.846 134.623L208.262 132.213L207.628 131.827L204.928 131.249L198.565 127.585L199.336 125.463L204.928 131.249H207.628L210.521 133.755Z" fill="#24170A"/>
<path d="M202.229 201.058L191.237 205.107H187.765H176.966L166.553 213.4L155.175 228.827L149.39 245.219L159.803 253.704L173.109 261.996L187.765 274.531L200.3 285.716L212.835 287.258L220.549 280.895L226.141 261.996V242.519L222.67 219.378L202.229 201.058Z" fill="#24170A"/>
<path d="M195.479 168.66L187.765 177.531L186.994 178.495L203.386 197.201L220.163 208.964L228.648 224.585L239.062 238.276V216.678L224.791 203.95L209.171 189.873L195.479 168.66Z" fill="#24170A"/>
<path d="M251.789 138.384L249.475 135.491L247.932 139.734L247.74 142.626L246.39 145.133L247.74 149.569L252.561 152.654L256.032 153.811H258.924L264.517 152.654L267.602 149.569L269.145 146.483L267.602 142.626L265.867 138.384L262.974 139.155H256.032L251.789 138.384Z" fill="#24170A"/>
<path d="M257.382 127.585V126.813L257.767 126.235L258.539 125.463L260.274 124.885H262.01L263.746 125.463L265.288 127.006L265.481 128.549V129.899L264.71 131.056L263.36 132.213L262.01 132.984L261.046 133.177L260.274 132.984L259.696 132.598L258.732 131.441L257.96 130.284L257.382 129.127V127.585Z" fill="#24170A"/>
<path d="M202.807 118.907L201.072 120.256V118.521L203.964 117.557L211.678 116.207L215.342 117.557L220.163 120.835L219.392 124.306L213.992 120.835L209.846 119.678L202.807 118.907Z" fill="#24170A"/>
<path d="M231.926 115.05L222.67 119.292L219.006 116.978L218.235 115.628V113.507L219.006 111.771H223.441L230.191 113.893L231.926 115.05Z" fill="#24170A"/>
<path d="M286.115 129.127L289.008 127.006L291.901 128.163L292.865 133.177L291.322 134.334L286.501 135.298L284.573 134.334L284.187 132.791L284.573 130.67L286.115 129.127Z" fill="#24170A"/>
<path d="M282.644 128.934L286.308 126.042L284.38 125.463L280.716 128.934L281.487 133.948L282.644 128.934Z" fill="#3A2C22"/>
<path d="M287.079 137.227L291.515 136.841V137.612L288.815 137.998L287.079 137.227Z" fill="#3A2C22"/>
<path d="M259.117 115.243L260.66 116.207L259.117 117.171L258.924 118.328V118.907L258.346 120.642C258.346 120.642 257.322 122.861 256.224 123.92C252.865 127.163 244.268 123.92 244.268 123.92C244.268 123.92 239.566 126.87 236.169 127.584C232.926 128.267 227.684 127.584 227.684 127.584C227.684 127.584 224.113 128.635 222.284 127.584C219.655 126.074 220.356 120.064 220.356 120.064L222.284 119.099L231.155 114.471L242.34 112.543H246.582L251.403 111.193L256.224 112.543L259.117 115.243Z" fill="#554132"/>
<path d="M251.403 166.732H258.346V185.63L256.224 205.107L251.403 214.942L240.99 224.584L244.268 214.942L248.125 201.636V179.459L251.403 166.732Z" fill="#554132"/>
<path d="M220.356 149.376C216.499 145.133 214.353 145.559 209.556 145.948C199.983 146.727 205.739 174.865 214.174 179.459C218.208 181.657 237.519 203.565 240.99 194.308C244.461 185.052 224.213 153.618 220.356 149.376Z" fill="#554132"/>
<path d="M174.845 185.63C174.845 185.63 185.41 163.846 189.886 170.781C191.747 173.663 191.236 179.459 191.236 179.459L206.278 197.008L227.684 217.449L236.169 246.183L240.99 273.181C240.99 273.181 247.885 275.084 251.403 277.809C257.954 282.883 264.654 289.641 260.66 296.901C258.524 300.782 255.433 301.616 251.403 303.457C240.306 308.527 227.033 310.197 220.356 299.986C215.616 292.738 220.787 286.459 220.356 277.809C219.736 265.382 220.228 258.053 216.499 246.183C214.255 239.041 213.586 234.378 208.785 228.634C203.573 222.399 191.236 217.449 191.236 217.449C191.236 217.449 180.848 204.415 182.054 192.713C182.421 189.159 174.845 185.63 174.845 185.63Z" fill="#554132"/>
<path d="M145.34 210.7C145.34 210.7 155.093 193.163 162.888 197.008C169.393 200.216 167.71 214.942 167.71 214.942L171.952 228.634L186.994 252.354L197.022 264.889C197.022 264.889 213.187 295.47 200.686 296.901C199.264 297.063 198.453 296.901 197.022 296.901C190.47 296.901 182.981 302.854 180.244 296.901C178.986 294.164 180.244 292.199 180.244 289.187C180.244 284.744 182.693 281.517 180.244 277.809C178.2 274.715 175.039 275.236 171.952 273.181C166.313 269.428 165.801 261.828 159.032 261.61C155.199 261.487 153.002 262.817 149.775 264.889C146.096 267.251 144.103 269.219 142.254 273.181C139.612 278.846 144.503 283.355 142.254 289.187C140.962 292.539 140.33 295.067 137.24 296.901C131.39 300.373 122.641 295.913 121.62 289.187C120.856 284.154 127.984 277.809 127.984 277.809L132.226 264.889L121.62 252.354L127.984 217.449L145.34 210.7Z" fill="#554132"/>
<path d="M209.556 118.907C209.556 118.907 214.72 124.719 217.27 122.571C218.149 121.83 219.013 121.196 218.813 120.064C218.655 119.171 217.976 118.897 217.27 118.328C215.188 116.65 213.189 117.344 210.521 117.171C208.867 117.063 207.921 116.955 206.278 117.171C204.575 117.395 202.036 118.328 202.036 118.328C202.036 118.328 199.153 122.508 200.879 123.92C202.826 125.515 202.579 119.811 204.928 118.907C206.615 118.257 209.556 118.907 209.556 118.907Z" fill="#554132"/>
<path d="M255.839 189.873C255.839 189.873 253.718 177.145 255.839 171.938C257.96 166.732 258.346 174.253 258.346 174.253C258.346 174.253 260.082 191.801 255.839 202.215C251.596 212.628 252.19 206.639 248.897 207.614C241.763 209.728 255.839 189.873 255.839 189.873Z" fill="#8B6F60" fill-opacity="0.49"/>
<path d="M254.682 112.35L258.346 114.664C258.346 114.664 259.696 115.541 259.696 116.4C259.696 117.258 259.197 118.249 258.346 118.135C257.472 118.019 257.575 116.014 257.575 116.014L253.332 113.893C253.332 113.893 246.878 113.807 248.318 112.35C249.14 111.519 251.211 111.579 251.211 111.579L254.682 112.35Z" fill="#8B6F60" fill-opacity="0.49"/>
<path d="M214.763 161.911C214.763 161.911 208.79 152.897 206.278 151.69C202.656 149.949 213.419 146.579 216.306 149.376C218.143 151.155 220.21 154.758 217.849 155.74C215.683 156.64 214.763 161.911 214.763 161.911Z" fill="#8B6F60" fill-opacity="0.49"/>
<path d="M207.628 206.264C207.628 206.264 197.837 183.948 190.851 189.873L190.806 189.911C189.013 191.432 187.698 192.547 187.38 194.887C186.782 199.282 196.058 202.215 196.058 202.215C196.058 202.215 212.211 221.438 211.292 213.978C210.884 210.668 207.628 206.264 207.628 206.264Z" fill="#8B6F60" fill-opacity="0.49"/>
<path d="M151.125 217.257L157.682 211.664L163.853 220.342L159.803 222.463L151.125 226.513V217.257Z" fill="#8B6F60" fill-opacity="0.49"/>
<path d="M267.008 125.595C268.896 129.595 267.205 134.283 263.289 136.086C259.373 137.89 254.65 136.156 252.761 132.156C250.872 128.155 252.564 123.468 256.48 121.664C260.396 119.861 265.119 121.594 267.008 125.595Z" stroke="#F5F5F5" stroke-width="3"/>
<path d="M262.203 125.463L264.324 126.813L265.095 129.32L262.974 131.634H260.081L259.31 128.549V126.813L262.203 125.463Z" fill="black" stroke="black"/>
<path d="M266.96 125C269.044 129.415 267.365 134.479 263.306 136.348C259.248 138.217 254.24 136.233 252.156 131.818C250.071 127.403 251.751 122.339 255.809 120.47C259.868 118.601 264.875 120.585 266.96 125Z" stroke="black"/>
<path d="M231.411 270.701C235.411 269.065 239.15 267.843 242.436 270.701C243.569 271.686 244.314 272.357 244.717 273.824C245.839 277.899 238.2 274.595 234.453 276.362C231.814 277.606 228.18 280.462 228.18 280.462C228.18 280.462 222.616 286.507 220.386 283.976C218.156 281.444 222.427 278.973 224.568 276.362C226.779 273.667 228.223 272.004 231.411 270.701Z" fill="#24170A" fill-opacity="0.87"/>
</svg>
