<svg width="275" height="342" viewBox="0 0 275 342" fill="none" xmlns="http://www.w3.org/2000/svg">
<path d="M183.297 248.134C183.297 248.134 97.5 193 -14 341.134L194 341.134L215 326.5L183.297 248.134Z" fill="#7EAC59"/>
<path d="M51.7956 298.098L73.4844 297.995L72.8819 86.7152L51.1931 86.8174L51.7956 298.098Z" fill="#57702D"/>
<path d="M61.9828 19.0957L51.3343 87.8495L73.0231 87.7473L61.9828 19.0957Z" fill="#5B6A3E"/>
<path d="M62.4783 19.0503L66.3026 42.8703L58.7801 42.9058L62.4783 19.0503Z" fill="#3A3728"/>
<path d="M73.3974 86.7159L62.553 86.767L63.1554 298.047L73.9998 297.996L73.3974 86.7159Z" fill="#405120"/>
<path opacity="0.8" d="M63.9951 -1.52936e-08L133 157L-5 157L63.9951 -1.52936e-08Z" fill="#2F6B34"/>
<path d="M181.382 113.158L186.363 116.226L189.731 113.638L195.618 110.876L200.327 109.676L204.577 108.719L208.732 108.24L215.211 109.354L219.134 112.562L223.981 115.657L228.461 120.062L231.772 121.948L235.11 122.839L240.05 122.978L243.976 124.085L248.89 125.219L250.199 128.044L250.681 132.24L248.279 133.367L245.476 134.682L242.219 138.175L241.313 142.531L237.309 144.409L235.441 147.742L228.461 151.812L223.981 155.006L223.981 158.163L219.134 162.159L219.134 166.779L219.134 172.619L219.134 198.412L181.382 210.509L170.111 198.412L145.382 169.17L151.043 166.779L154.309 162.159L161.711 155.006L166.527 147.742L171.689 142.531L173.408 138.025L173.326 133.642L174.019 129.878L174.499 126.705L172.523 126.649L166.527 123.181L168.886 114.597L171.689 113.282L178.445 112.079L181.382 113.158Z" fill="#2C2420" stroke="#53443C"/>
<path d="M213.8 123.726L219.815 120.904L216.872 119.82L213.766 117.333L210.122 112.633L209.824 108.829L215.225 106.788L219.346 108.306L224.193 112.442L222.35 114.785L224.227 118.835L226.48 123.695L228.169 127.339L225.362 128.656L218.945 131.666L217.255 128.022L213.083 128.5L213.8 123.726Z" fill="#8B6F60"/>
<path d="M196.319 127.259L201.509 124.825L204.785 127.698L208.672 129.794L211.228 130.065L213.84 135.699L218.847 140.21L226.327 140.62L234.394 141.246L236.259 145.271L233.013 148.753L227.741 146.816L218.317 145.358L209.344 141.728L206.359 135.288L196.319 127.259Z" fill="#8B6F60" fill-opacity="0.63"/>
<path d="M195.372 148.282L195.181 140.532L199.602 144.827L208.445 153.418L217.366 159.033L222.855 159.033L220.896 163.639L218.966 165.632L201.986 156.219L195.163 156.219L188.425 150.071L195.372 148.282Z" fill="#8B6F60" fill-opacity="0.63"/>
<path d="M206.378 119.601L211.799 112.423L210.244 109.07L200.091 111.281L192.401 118.808L195.2 124.845L201.986 121.661L206.378 119.601Z" fill="#8B6F60" fill-opacity="0.63"/>
<path d="M227.752 137.075L218.725 142.783L216.728 143.72L215.579 147.538L220.782 147.221L217.914 152.574L226.596 151.37L231.064 146.406L227.752 137.075Z" fill="#1D1514"/>
<path d="M177.229 126.468L182.545 118.552L177.807 120.979L176.651 119.246L176.651 115.779L170.121 118.552L170.988 122.135L174.079 123.29L177.229 126.468Z" fill="#1D1514"/>
<path d="M174.079 131.125L193.14 140.049L194.738 139.299L201.564 142.483L204.182 148.131L206.8 153.78L213.627 160.401L209.375 152.574L217.914 153.78L218.725 158.502L220.782 156.969L231.064 152.574L222.438 160.401L213.074 163.116L197.73 156.47L188.039 152.574L200.349 151.403L180.942 142.212L189.846 140.633L174.079 137.075L174.079 131.125Z" fill="#1D1514"/>
<path d="M193.14 140.049L174.079 131.125L174.079 137.075L196.841 142.212L198.724 143.815L193.14 140.049ZM193.14 140.049L180.942 142.212L200.349 151.403L188.039 152.574L207.421 160.365L213.074 163.116M193.14 140.049L194.738 139.299L201.564 142.483L204.182 148.131L206.8 153.78L213.627 160.401L209.375 152.574L217.914 153.78L218.725 158.502L220.782 156.969L231.064 152.574L222.438 160.401L213.074 163.116M213.074 163.116L197.73 156.47M218.725 142.783L227.752 137.075L231.064 146.406L226.596 151.37L217.914 152.574L220.782 147.221L215.579 147.538L216.728 143.72L218.725 142.783ZM182.545 118.552L177.229 126.468L174.079 123.29L170.988 122.135L170.121 118.552L176.651 115.779L176.651 119.246L177.807 120.979L182.545 118.552Z" stroke="#1D1514"/>
<path d="M227.384 113.942L224.349 111.876L222.71 114.6L227.514 118.704L228.817 121.515L231.424 127.139L230.716 131.871L230.592 136.82L233.881 138.7L237.667 144.718L243.119 142.16L246.285 138.898L251.663 136.376L252.154 132.465L253.705 129.401L252.503 123.671L248.826 121.909L244.531 120.99L239.718 120.911L232.005 118.183L227.384 113.942Z" fill="#D8BE97"/>
<path d="M249.95 122.405L251.976 123.29L252.723 124.902L253.454 127.407L252.698 128.332L250.676 129.812L247.727 130.664L245.552 129.067L245.778 127.4L249.95 122.405Z" fill="#1D1514"/>
<path d="M252.723 124.902L251.976 123.29L249.95 122.405L245.778 127.4L245.552 129.067L247.727 130.664L250.676 129.812L252.698 128.332L253.454 127.407M252.723 124.902L252.347 127.575L253.454 127.407M252.723 124.902L253.454 127.407" stroke="#1D1514"/>
<path d="M227.902 122.71C228.828 124.707 227.774 127.172 225.548 128.216C223.323 129.261 222.215 127.809 221.289 125.813C220.363 123.816 219.97 122.029 222.196 120.985C224.422 119.941 226.977 120.713 227.902 122.71Z" fill="#1D1514"/>
<path d="M230.673 122.115C233.044 127.23 231.043 132.938 226.607 135.019C222.17 137.1 216.537 134.973 214.166 129.858C211.795 124.743 213.796 119.035 218.233 116.954C222.669 114.873 228.302 117 230.673 122.115Z" stroke="#F5F5F5" stroke-width="4"/>
<path d="M231.291 121.825C233.902 127.459 232.052 133.569 227.602 135.657C223.153 137.744 217.31 135.242 214.699 129.608C212.087 123.975 213.938 117.864 218.387 115.777C222.837 113.689 228.679 116.192 231.291 121.825Z" stroke="#1D1514" stroke-width="2"/>
<path d="M248.85 121.835L246.659 121.483L244.558 125.29L244.03 127.294L245.287 124.949L248.85 121.835Z" fill="#1D1514"/>
<path d="M249.278 133.636L252.27 132.233L252.129 133.356L250.983 133.742L250.459 133.611L249.278 133.636Z" fill="#1D1514"/>
<path d="M248.245 134.121L249.278 133.636M249.278 133.636L252.27 132.233L252.129 133.356L250.983 133.742L250.459 133.611L249.278 133.636Z" stroke="#1D1514"/>
<path d="M231.177 130.154L230.655 136.957L233.753 137.796L237.117 142.968L240.767 142.911L237.748 144.328L235.687 143.639L234.257 140.553L231.528 138.84L230.655 136.957L230.135 131.662L231.177 130.154Z" fill="#1D1514"/>
<path d="M230.655 136.957L231.177 130.154L230.135 131.662L230.655 136.957ZM230.655 136.957L233.753 137.796L237.117 142.968M230.655 136.957L231.528 138.84L234.257 140.553L235.687 143.639L237.748 144.328M237.117 142.968L237.748 144.328M237.117 142.968L240.767 142.911L237.748 144.328" stroke="#1D1514"/>
<path d="M110.509 197.727L146.2 171.017L219.758 197.727L217.364 214.147L212.576 231.443L207.571 259.467L195.819 254.65L186.461 275.449L183.85 287.272H176.45L172.098 279.609L166.222 270.414L151.205 259.467L131.184 251.804L103.763 287.272L82 270.414L96.1458 214.147L110.509 197.727Z" fill="#2C231F"/>
<path d="M103.694 269.661L120.663 249.295H129.404L148.539 257.304L164.604 269.661L175.471 280.874H181.14V266.458V207.876L129.404 178.26L164.604 154.376L202.166 207.876V257.304V266.458L208.072 271.492L219.411 280.874V288.54L210.67 291.858L208.072 295.52L202.166 299.868L186.81 298.037L170.273 295.52H142.161H120.663L107.197 291.858L96.3303 285.222L96.3303 280.874L103.694 269.661Z" fill="#5F4A3F"/>
<path d="M210.051 190.724L216.364 165.47L219.412 168.3L216.364 199.214L210.051 190.724Z" fill="#8B6F60"/>
<path d="M220.031 205.042L208.904 260.229V266.142L220.031 278.406L224.612 288.48L215.667 299.211L204.54 299.868L201.267 260.229L207.158 258.477V249.06L211.303 220.372V205.042V197.596L220.031 205.042Z" fill="#8B6F60"/>
<path d="M124.869 203.147L139.063 192.627L144.523 224.188L124.869 238.158L111.585 220.049L124.869 203.147Z" fill="#61483A"/>
<path d="M172.606 152.392L176.882 142.358V159.808L172.606 152.392Z" fill="#8B6F60"/>
<path d="M174.298 163.65L189.318 142.622L203.032 155.764L208.474 167.155L206.079 180.079L208.474 193.221L206.079 207.459L203.032 200.012L199.767 193.221L180.175 173.945L174.298 163.65Z" fill="#1D1514"/>
<path d="M213.045 197.821V210.088L210.651 243.383L206.079 265.288L216.093 274.488L219.358 282.811H208.474L206.079 265.288L203.032 258.935L206.079 230.021L213.045 197.821Z" fill="#1D1514"/>
<path d="M222.406 291.135H216.093H199.767L193.351 297.926L213.045 302.526H219.358L227.848 297.926L222.406 291.135Z" fill="#1D1514"/>
<path d="M191.495 299.459L180.175 297.926L184.747 282.811L191.495 299.459Z" fill="#1D1514"/>
<path d="M168.42 274.488L146.87 258.935L154.706 193.221L174.298 204.831L180.175 279.964L174.298 282.811L168.42 274.488Z" fill="#1D1514"/>
<path d="M113.129 258.935L99.4147 279.964L96.3671 287.849L88.3128 282.811L84.6122 277.116L82 268.354L82.653 255.212L88.3128 240.097L92.0134 230.021L99.4147 210.088L108.122 197.821L122.489 183.802L131.849 180.079L130.326 178.983L138.815 173.945L145.128 168.25L151.223 163.65L156.448 160.583L161.89 154.888L164.937 150.726L168.42 146.345L172.121 142.622V139.774L172.992 135.831L174.298 129.041V138.898V142.622L168.42 153.355L161.89 159.488L149.917 167.155L142.516 171.536L146.87 180.079L149.917 183.802H142.516H136.203L113.129 204.831L96.3671 231.993L113.129 258.935Z" fill="#1D1514"/>
<path d="M185.182 112.393L189.318 115.241L197.59 110.86L195.631 109.546L189.318 107.574H185.182V112.393Z" fill="#1D1514"/>
<path d="M126.19 295.078H117.482L113.129 287.849V279.964L120.53 277.116V265.288L126.19 255.212L131.849 261.783L146.87 272.516L156.448 277.116V291.135L146.87 295.078H126.19Z" fill="#1D1514"/>
<path d="M161.89 180.079L168.42 173.945L180.175 193.221L161.89 180.079Z" fill="#1D1514"/>
<path d="M206.079 265.288L210.651 243.383L213.045 210.088V197.821L206.079 230.021L203.032 258.935L206.079 265.288ZM206.079 265.288L216.093 274.488L219.358 282.811H208.474L206.079 265.288ZM136.203 183.802L113.129 204.831L96.3671 231.993L113.129 258.935L99.4147 279.964L96.3671 287.849L88.3128 282.811L84.6122 277.116L82 268.354L82.653 255.212L88.3128 240.097L92.0134 230.021L99.4147 210.088L108.122 197.821L122.489 183.802L131.849 180.079M136.203 183.802L131.849 180.079M136.203 183.802H142.516H149.917L146.87 180.079L142.516 171.536L149.917 167.155L161.89 159.488L168.42 153.355L174.298 142.622V138.898V129.041L172.992 135.831L172.121 139.774V142.622L168.42 146.345L164.937 150.726L161.89 154.888L156.448 160.583L151.223 163.65L145.128 168.25L138.815 173.945M131.849 180.079L138.815 173.945M131.849 180.079L130.326 178.983L138.815 173.945M189.318 142.622L174.298 163.65L180.175 173.945L199.767 193.221L203.032 200.012L206.079 207.459L208.474 193.221L206.079 180.079L208.474 167.155L203.032 155.764L189.318 142.622ZM216.093 291.135H222.406L227.848 297.926L219.358 302.526H213.045L193.351 297.926L199.767 291.135H216.093ZM180.175 297.926L191.495 299.459L184.747 282.811L180.175 297.926ZM146.87 258.935L168.42 274.488L174.298 282.811L180.175 279.964L174.298 204.831L154.706 193.221L146.87 258.935ZM189.318 115.241L185.182 112.393V107.574H189.318L195.631 109.546L197.59 110.86L189.318 115.241ZM117.482 295.078H126.19H146.87L156.448 291.135V277.116L146.87 272.516L131.849 261.783L126.19 255.212L120.53 265.288V277.116L113.129 279.964V287.849L117.482 295.078ZM168.42 173.945L161.89 180.079L180.175 193.221L168.42 173.945Z" stroke="#1D1514"/>
<path d="M173.182 128.349V128.104L174.196 126.694H172.511V126.327L172.39 126.694L166.48 123.2L168.856 114.619L171.659 113.209L178.421 112.105L181.588 113.209L186.279 116.212L188.046 114.189L196.452 109.715L197.549 109.981L204.433 108.489L208.941 107.937L210.525 108.182L214.728 106.65L219.663 108.366L223.866 111.86H224.414L225.328 112.289L228.13 114.435L230.323 116.274L231.785 117.929L232.638 118.296L239.948 120.748H245.066L247.259 121.239L250.609 122.097L252.62 123.139L252.985 124.365L253.594 126.572L254.082 129.33L252.498 132.518L251.584 136.809L247.076 139.015L243.665 142.08L237.512 144.961L236.05 147.72L235.38 148.21L232.273 149.804L224.049 157.466V158.263L223.074 159.428L221.125 163.719L219.541 165.803V170.707L219.236 197.004L220.394 198.046L219.236 203.931L220.394 204.973L211.56 248.74L209.124 259.835V265.842L220.515 278.592L224.658 288.032V288.829L224.231 289.135L222.769 291.894L221.856 291.158L224.231 288.829V287.787L220.211 278.715L208.636 266.149V259.835L211.134 248.74L219.784 204.973L218.81 204.176V203.624L219.784 198.046L218.81 197.555V182.231L219.236 168.868V165.496L221.125 162.983L222.587 159.428L223.561 158.263L223.074 157.221L231.785 149.804L235.38 147.72L237.268 143.919L239.035 143.368L243.665 141.59L246.832 138.464L251.584 136.134L252.193 132.273L253.594 129.33L253.29 127.123L252.62 124.365L250.183 122.587L249.208 122.097L246.832 121.545L244.578 121.055H239.644L232.516 118.542L231.785 118.174L229.958 116.274L227.947 114.619L226.425 113.331L224.841 112.289H224.049L219.236 108.366L215.094 106.834L210.525 108.489L208.758 108.182L204.433 108.734L198.219 110.144L195.843 110.757L190.361 113.209L188.046 114.986L186.279 116.212L181.406 113.331L178.421 112.105L171.841 113.393L168.978 114.741L166.663 123.295L172.511 126.327H174.461L173.705 132.947L173.425 137.851L172.938 138.709L173.273 130.985L173.182 128.349Z" fill="#1D1514"/>
<path d="M174.461 126.327L173.705 132.947M174.461 126.327H172.511M174.461 126.327L172.511 126.694M174.461 126.327L174.196 126.694M173.705 132.947L173.425 135.399L173.273 130.985M173.705 132.947L173.425 137.851L172.938 138.709L173.273 130.985M173.273 130.985L173.182 128.349V128.104L174.196 126.694M172.511 126.327V126.694M172.511 126.327L172.39 126.694L166.48 123.2M172.511 126.327L166.663 123.295M172.511 126.694H174.196M166.48 123.2L168.856 114.619M166.48 123.2L166.663 123.295M168.856 114.619L168.978 114.741M168.856 114.619L171.659 113.209M168.978 114.741L166.663 123.295M168.978 114.741L171.841 113.393M171.841 113.393L171.659 113.209M171.841 113.393L178.421 112.105M171.659 113.209L178.421 112.105M178.421 112.105L181.406 113.331M178.421 112.105L181.588 113.209M181.406 113.331L181.588 113.209M181.406 113.331L186.279 116.212M181.588 113.209L186.279 116.212M186.279 116.212L188.046 114.189L196.452 109.715L197.549 109.981M186.279 116.212L188.046 114.986L190.361 113.209L195.843 110.757L198.219 110.144M198.219 110.144L204.433 108.734L208.758 108.182L210.525 108.489L215.094 106.834M198.219 110.144L197.549 109.981M215.094 106.834L214.728 106.65M215.094 106.834L219.236 108.366L224.049 112.289H224.841L226.425 113.331L227.947 114.619L229.958 116.274L231.785 118.174L232.516 118.542L239.644 121.055H244.578L246.832 121.545L249.208 122.097L250.183 122.587L252.62 124.365L253.29 127.123L253.594 129.33L252.193 132.273L251.584 136.134L246.832 138.464L243.665 141.59L239.035 143.368L237.268 143.919L235.38 147.72L231.785 149.804L223.074 157.221L223.561 158.263L222.587 159.428L221.125 162.983L219.236 165.496V168.868L218.81 182.231V197.555L219.784 198.046L218.81 203.624V204.176L219.784 204.973L211.134 248.74L208.636 259.835V266.149L220.211 278.715L224.231 287.787V288.829L221.856 291.158L222.769 291.894L224.231 289.136L224.658 288.829V288.032L220.515 278.592L209.124 265.842V259.835L211.56 248.74L220.394 204.973L219.236 203.931L220.394 198.046L219.236 197.004L219.541 170.707V165.803L221.125 163.719L223.074 159.428L224.049 158.263V157.466L232.273 149.804L235.38 148.21L236.05 147.72L237.512 144.961L243.665 142.08L247.076 139.015L251.584 136.809L252.498 132.518L254.082 129.33L253.594 126.572L252.985 124.365L252.62 123.139L250.609 122.097L247.259 121.239L245.066 120.748H239.948L232.638 118.296L231.785 117.929L230.323 116.274L228.13 114.435L225.328 112.289L224.414 111.86H223.866L219.663 108.366L214.728 106.65M214.728 106.65L210.525 108.182L208.941 107.937L204.433 108.489L197.549 109.981" stroke="#1D1514"/>
<path d="M239.289 144.551L237.708 149.65L234.487 154.503L228.286 158.68H224.821L219.411 165.008L223.119 156.346V154.503L238.62 143.629H239.289V144.551Z" fill="#1D1514"/>
<path d="M224.821 158.68H228.286L234.487 154.503L237.708 149.65L239.289 144.551V143.629H238.62L223.119 154.503M224.821 158.68L223.119 154.503M224.821 158.68L219.411 165.008L223.119 156.346V154.503" stroke="#1D1514"/>
<path d="M213.864 191.843L219.758 166.279V196.441L213.864 191.843Z" fill="#1D1514" stroke="#1D1514"/>
<path d="M188.99 252.892L183.079 240.017V257.183L188.99 252.892Z" fill="#1D1514"/>
<path d="M188.99 199.676L199.534 208.627L188.99 204.52L183.079 208.627V204.52L188.99 199.676Z" fill="#1D1514"/>
<path d="M113.419 290.473L97.0244 284.281V287.837L106.958 292.006L120.976 295.93H146.938H170.829L188.99 300.099L199.534 295.93V290.473L188.99 295.93L166.746 290.473H137.37H113.419Z" fill="#1D1514"/>
<path d="M188.99 252.892L183.079 240.017V257.183L188.99 252.892Z" stroke="#1D1514"/>
<path d="M188.99 199.676L199.534 208.627L188.99 204.52L183.079 208.627V204.52L188.99 199.676Z" stroke="#1D1514"/>
<path d="M113.419 290.473L97.0244 284.281V287.837L106.958 292.006L120.976 295.93H146.938H170.829L188.99 300.099L199.534 295.93V290.473L188.99 295.93L166.746 290.473H137.37H113.419Z" stroke="#1D1514"/>
<path d="M199.517 235.329V213.89L202.825 259.156L206.93 270.977L196.76 264.913L199.517 254.5V235.329Z" fill="#1D1514" stroke="#1D1514"/>
<path d="M159.348 184.845L152.844 168.337V189.448L171.748 195.401L159.348 184.845Z" fill="#53443C"/>
<path d="M180.927 184.845L163.907 157.843H171.748L180.927 184.845Z" fill="#53443C"/>
<path d="M199.255 138.385L194.685 127.203L199.255 131.258L205.774 140.965L199.255 143.976V138.385Z" fill="#1D1514"/>
<path d="M179.331 113.993H170.435L178.539 111.966L182.194 113.44L185.241 115.345L186.764 117.004L185.241 117.741L179.331 113.993Z" fill="#1D1514"/>
<path d="M167.328 122.349L171.471 125.482L166.596 123.086L167.328 122.349Z" fill="#1D1514"/>
<path d="M178.539 111.966L182.194 113.44L185.241 115.345L186.764 117.004L185.241 117.741L179.331 113.993H170.435L178.539 111.966ZM178.539 111.966L171.471 112.949M175.248 129.292L174.091 126.343L171.471 125.482M171.471 125.482L167.328 122.349L166.596 123.086L171.471 125.482ZM194.685 127.203L199.255 138.385V143.976L205.774 140.965L199.255 131.258L194.685 127.203Z" stroke="#1D1514"/>
</svg>
