<svg width="215" height="342" viewBox="0 0 215 342" fill="none" xmlns="http://www.w3.org/2000/svg">
<g id="tree-left">
<path id="Vector" d="M183.297 248.134C183.297 248.134 97.5 193 -14 341.134L194 341.134L215 326.5L183.297 248.134Z" fill="#7EAC59"/>
<g id="Trees">
<path id="Vector_2" d="M51.7956 298.098L73.4844 297.995L72.8819 86.7152L51.1931 86.8174L51.7956 298.098Z" fill="#57702D"/>
<path id="Vector_3" d="M61.9831 19.0957L51.3346 87.8496L73.0234 87.7473L61.9831 19.0957Z" fill="#5B6A3E"/>
<path id="Vector_4" d="M62.4786 19.0504L66.3029 42.8703L58.7804 42.9058L62.4786 19.0504Z" fill="#3A3728"/>
<path id="Vector_5" d="M73.3976 86.7159L62.5532 86.767L63.1557 298.047L74.0001 297.996L73.3976 86.7159Z" fill="#405120"/>
</g>
<path id="Vector_6" opacity="0.8" d="M63.9951 -1.52936e-08L133 157L-5 157L63.9951 -1.52936e-08Z" fill="#2F6B34"/>
</g>
</svg>
